<svg width="28" height="29" viewBox="0 0 28 29" fill="none" xmlns="http://www.w3.org/2000/svg">
<circle cx="14" cy="14.154" r="14" fill="white"/>
<circle cx="14" cy="14.154" r="13.5" stroke="black" stroke-opacity="0.2"/>
<path d="M20.2071 11.1371C19.7881 11.3233 19.3458 11.4397 18.8802 11.5096C19.3458 11.2302 19.7183 10.7879 19.8812 10.2525C19.4389 10.5086 18.9501 10.6948 18.4146 10.8112C17.9956 10.3689 17.3904 10.0895 16.7386 10.0895C15.4815 10.0895 14.4572 11.1138 14.4572 12.3709C14.4572 12.5571 14.4805 12.7201 14.5271 12.883C12.6415 12.7899 10.9421 11.882 9.80141 10.4853C9.61518 10.8345 9.49878 11.2069 9.49878 11.626C9.49878 12.4174 9.89453 13.1158 10.5231 13.5348C10.1506 13.5116 9.80141 13.4184 9.4755 13.2555V13.2788C9.4755 14.3962 10.267 15.3273 11.3145 15.5368C11.1283 15.5834 10.9188 15.6067 10.7093 15.6067C10.5696 15.6067 10.4067 15.5834 10.267 15.5601C10.5696 16.468 11.4077 17.1431 12.4087 17.1431C11.6172 17.7483 10.6395 18.1208 9.56862 18.1208C9.38239 18.1208 9.19616 18.1208 9.0332 18.0975C10.0575 18.7493 11.2447 19.1218 12.5483 19.1218C16.7618 19.1218 19.0665 15.6299 19.0665 12.6037C19.0665 12.5106 19.0665 12.3942 19.0665 12.301C19.5088 11.9984 19.9045 11.6027 20.2071 11.1371Z" fill="#9F3247"/>
</svg>
