<svg width="28" height="29" viewBox="0 0 28 29" fill="none" xmlns="http://www.w3.org/2000/svg">
<circle cx="14" cy="14.154" r="14" fill="white"/>
<circle cx="14" cy="14.154" r="13.5" stroke="black" stroke-opacity="0.2"/>
<path d="M14.0008 8.6012C15.8095 8.6012 16.0237 8.60797 16.7382 8.64055C17.1678 8.64581 17.5933 8.7247 17.9962 8.87378C18.2884 8.98647 18.5538 9.1591 18.7753 9.38055C18.9967 9.60201 19.1694 9.86738 19.282 10.1596C19.4311 10.5625 19.51 10.988 19.5153 11.4177C19.5475 12.1322 19.5546 12.3464 19.5546 14.1551C19.5546 15.9638 19.5479 16.178 19.5153 16.8925C19.51 17.3221 19.4311 17.7476 19.282 18.1506C19.1694 18.4428 18.9967 18.7081 18.7753 18.9296C18.5538 19.151 18.2884 19.3237 17.9962 19.4364C17.5933 19.5854 17.1678 19.6643 16.7382 19.6696C16.024 19.7018 15.8098 19.7089 14.0008 19.7089C12.1917 19.7089 11.9775 19.7022 11.2633 19.6696C10.8337 19.6643 10.4082 19.5854 10.0053 19.4364C9.71307 19.3237 9.44769 19.151 9.22624 18.9296C9.00479 18.7081 8.83216 18.4428 8.71947 18.1506C8.57038 17.7476 8.4915 17.3221 8.48624 16.8925C8.45398 16.178 8.44689 15.9638 8.44689 14.1551C8.44689 12.3464 8.45366 12.1322 8.48624 11.4177C8.4915 10.988 8.57038 10.5625 8.71947 10.1596C8.83216 9.86738 9.00479 9.60201 9.22624 9.38055C9.44769 9.1591 9.71307 8.98647 10.0053 8.87378C10.4082 8.7247 10.8337 8.64581 11.2633 8.64055C11.9779 8.6083 12.192 8.6012 14.0008 8.6012ZM14.0008 7.38055C12.162 7.38055 11.9304 7.3883 11.2079 7.4212C10.6456 7.43238 10.0893 7.53884 9.56269 7.73604C9.11092 7.90625 8.70172 8.17299 8.36366 8.51765C8.01869 8.85584 7.75172 9.26526 7.5814 9.71733C7.3842 10.244 7.27775 10.8002 7.26656 11.3625C7.2343 12.0844 7.22656 12.316 7.22656 14.1547C7.22656 15.9935 7.2343 16.2251 7.26721 16.9476C7.27839 17.5099 7.38485 18.0662 7.58205 18.5928C7.75218 19.0448 8.01892 19.4542 8.36366 19.7925C8.70191 20.1372 9.11133 20.404 9.56334 20.5741C10.09 20.7713 10.6463 20.8778 11.2085 20.8889C11.9311 20.9212 12.1617 20.9296 14.0014 20.9296C15.8411 20.9296 16.0717 20.9218 16.7943 20.8889C17.3565 20.8778 17.9128 20.7713 18.4395 20.5741C18.8893 20.3997 19.2978 20.1334 19.6389 19.7921C19.98 19.4508 20.246 19.0421 20.4201 18.5922C20.6173 18.0655 20.7238 17.5092 20.735 16.947C20.7672 16.2251 20.775 15.9935 20.775 14.1547C20.775 12.316 20.7672 12.0844 20.7343 11.3618C20.7231 10.7996 20.6167 10.2433 20.4195 9.71668C20.2493 9.26468 19.9826 8.85525 19.6379 8.51701C19.2996 8.17227 18.8902 7.90552 18.4382 7.73539C17.9115 7.53819 17.3553 7.43174 16.793 7.42055C16.0711 7.3883 15.8395 7.38055 14.0008 7.38055Z" fill="#9F3247"/>
<path d="M14.0021 10.6774C13.3141 10.6774 12.6416 10.8815 12.0695 11.2637C11.4974 11.6459 11.0515 12.1892 10.7882 12.8249C10.5249 13.4605 10.4561 14.16 10.5903 14.8348C10.7245 15.5096 11.0558 16.1295 11.5423 16.616C12.0288 17.1025 12.6487 17.4338 13.3235 17.568C13.9983 17.7022 14.6977 17.6333 15.3334 17.37C15.969 17.1068 16.5123 16.6609 16.8946 16.0888C17.2768 15.5167 17.4809 14.8442 17.4809 14.1561C17.4809 13.2335 17.1144 12.3487 16.462 11.6963C15.8096 11.0439 14.9248 10.6774 14.0021 10.6774ZM14.0021 16.4142C13.5555 16.4142 13.119 16.2818 12.7476 16.0337C12.3763 15.7855 12.0869 15.4329 11.916 15.0203C11.7451 14.6077 11.7003 14.1536 11.7875 13.7156C11.8746 13.2776 12.0897 12.8752 12.4055 12.5594C12.7213 12.2437 13.1236 12.0286 13.5616 11.9415C13.9996 11.8543 14.4537 11.8991 14.8663 12.07C15.2789 12.2409 15.6315 12.5303 15.8797 12.9016C16.1278 13.273 16.2602 13.7095 16.2602 14.1561C16.2602 14.755 16.0223 15.3294 15.5988 15.7528C15.1754 16.1763 14.601 16.4142 14.0021 16.4142Z" fill="#9F3247"/>
<path d="M17.6176 11.3521C18.0665 11.3521 18.4305 10.9881 18.4305 10.5392C18.4305 10.0902 18.0665 9.72626 17.6176 9.72626C17.1686 9.72626 16.8047 10.0902 16.8047 10.5392C16.8047 10.9881 17.1686 11.3521 17.6176 11.3521Z" fill="#9F3247"/>
</svg>
