<svg width="28" height="29" viewBox="0 0 28 29" fill="none" xmlns="http://www.w3.org/2000/svg">
<circle cx="14" cy="14.154" r="14" fill="white"/>
<circle cx="14" cy="14.154" r="13.5" stroke="black" stroke-opacity="0.2"/>
<path fill-rule="evenodd" clip-rule="evenodd" d="M14.6068 7.38055C11.0159 7.38055 8.12695 10.2695 8.12695 13.8604C8.12695 16.7224 9.98992 19.1524 12.5549 20.0164C12.8789 20.0704 12.9869 19.8814 12.9869 19.6924C12.9869 19.5304 12.9869 19.1254 12.9869 18.5854C11.1779 18.9904 10.7999 17.7214 10.7999 17.7214C10.5029 16.9654 10.0709 16.7764 10.0709 16.7764C9.47693 16.3714 10.1249 16.3714 10.1249 16.3714C10.7729 16.4254 11.1239 17.0464 11.1239 17.0464C11.6909 18.0454 12.6359 17.7484 13.0139 17.5864C13.0679 17.1544 13.2299 16.8844 13.4189 16.7224C11.9879 16.5604 10.4759 15.9934 10.4759 13.5095C10.4759 12.8075 10.7189 12.2135 11.1509 11.7815C11.0969 11.6195 10.8539 10.9715 11.2049 10.0535C11.2049 10.0535 11.7449 9.89151 12.9869 10.7285C13.4999 10.5935 14.0669 10.5125 14.6068 10.5125C15.1468 10.5125 15.7138 10.5935 16.2268 10.7285C17.4688 9.89151 18.0088 10.0535 18.0088 10.0535C18.3598 10.9445 18.1438 11.5925 18.0628 11.7815C18.4678 12.2405 18.7378 12.8075 18.7378 13.5095C18.7378 15.9934 17.2258 16.5334 15.7678 16.6954C16.0108 16.8844 16.1998 17.2894 16.1998 17.8834C16.1998 18.7474 16.1998 19.4494 16.1998 19.6654C16.1998 19.8274 16.3078 20.0434 16.6588 19.9894C19.2238 19.1524 21.0867 16.7224 21.0867 13.8604C21.0867 10.2695 18.1978 7.38055 14.6068 7.38055Z" fill="#9F3247"/>
</svg>
