<svg width="111" height="111" viewBox="0 0 111 111" fill="none" xmlns="http://www.w3.org/2000/svg">
<rect x="0.266602" y="0.333252" width="110.133" height="110.133" rx="55.0667" fill="url(#paint0_linear_2025_291)"/>
<path d="M32.3886 39.0112H35.6663C37.405 39.0112 39.0724 38.3206 40.3018 37.0912C41.5312 35.8618 42.2219 34.1943 42.2219 32.4557C42.2219 31.5864 42.5672 30.7527 43.1819 30.138C43.7966 29.5233 44.6304 29.1779 45.4997 29.1779H65.1663C66.0357 29.1779 66.8694 29.5233 67.4841 30.138C68.0988 30.7527 68.4441 31.5864 68.4441 32.4557C68.4441 34.1943 69.1348 35.8618 70.3642 37.0912C71.5936 38.3206 73.261 39.0112 74.9997 39.0112H78.2775C80.0161 39.0112 81.6835 39.7019 82.9129 40.9313C84.1423 42.1607 84.833 43.8282 84.833 45.5668V75.0668C84.833 76.8054 84.1423 78.4729 82.9129 79.7023C81.6835 80.9317 80.0161 81.6224 78.2775 81.6224H32.3886C30.6499 81.6224 28.9825 80.9317 27.7531 79.7023C26.5237 78.4729 25.833 76.8054 25.833 75.0668V45.5668C25.833 43.8282 26.5237 42.1607 27.7531 40.9313C28.9825 39.7019 30.6499 39.0112 32.3886 39.0112" stroke="#FFFCFC" stroke-width="2.80952" stroke-linecap="round" stroke-linejoin="round"/>
<path d="M55.3328 68.5112C60.7636 68.5112 65.1662 64.1087 65.1662 58.6779C65.1662 53.2471 60.7636 48.8445 55.3328 48.8445C49.902 48.8445 45.4995 53.2471 45.4995 58.6779C45.4995 64.1087 49.902 68.5112 55.3328 68.5112Z" stroke="#FFFCFC" stroke-width="2.80952" stroke-linecap="round" stroke-linejoin="round"/>
<defs>
<linearGradient id="paint0_linear_2025_291" x1="6.30617" y1="59.2977" x2="104.625" y2="58.0612" gradientUnits="userSpaceOnUse">
<stop stop-color="#7B2334"/>
<stop offset="1" stop-color="#9F3247"/>
</linearGradient>
</defs>
</svg>
