<svg width="25" height="24" viewBox="0 0 25 24" fill="none" xmlns="http://www.w3.org/2000/svg">
<path d="M22.0092 20.2042L17.557 15.7501C18.8919 14.0106 19.5151 11.8284 19.3003 9.64618C19.0854 7.46401 18.0485 5.44527 16.4 3.99948C14.7514 2.55369 12.6146 1.7891 10.4231 1.86083C8.23155 1.93255 6.14933 2.83521 4.59884 4.3857C3.04835 5.9362 2.14569 8.01841 2.07396 10.21C2.00224 12.4015 2.76682 14.5383 4.21262 16.1868C5.65841 17.8354 7.67715 18.8723 9.85932 19.0871C12.0415 19.302 14.2237 18.6788 15.9633 17.3439L20.4192 21.8007C20.5238 21.9054 20.6481 21.9884 20.7848 22.045C20.9215 22.1017 21.0681 22.1308 21.2161 22.1308C21.3641 22.1308 21.5106 22.1017 21.6473 22.045C21.7841 21.9884 21.9083 21.9054 22.0129 21.8007C22.1176 21.6961 22.2006 21.5719 22.2572 21.4351C22.3139 21.2984 22.343 21.1519 22.343 21.0039C22.343 20.8559 22.3139 20.7093 22.2572 20.5726C22.2006 20.4359 22.1176 20.3116 22.0129 20.207L22.0092 20.2042ZM4.33825 10.5001C4.33825 9.23926 4.71214 8.00672 5.41263 6.95836C6.11313 5.90999 7.10876 5.09289 8.27364 4.61038C9.43852 4.12788 10.7203 4.00163 11.957 4.24761C13.1936 4.49359 14.3295 5.10075 15.2211 5.99231C16.1126 6.88387 16.7198 8.01979 16.9658 9.25642C17.2117 10.493 17.0855 11.7748 16.603 12.9397C16.1205 14.1046 15.3034 15.1002 14.255 15.8007C13.2066 16.5012 11.9741 16.8751 10.7133 16.8751C9.02303 16.8734 7.40253 16.2012 6.20736 15.006C5.0122 13.8108 4.33999 12.1903 4.33825 10.5001Z" fill="black" fill-opacity="0.4"/>
</svg>
