<svg width="17" height="16" viewBox="0 0 17 16" fill="none" xmlns="http://www.w3.org/2000/svg">
<path d="M13.7435 6.53073L8.74349 11.5307C8.67381 11.6007 8.59102 11.6561 8.49985 11.694C8.40869 11.7318 8.31095 11.7513 8.21224 11.7513C8.11353 11.7513 8.01579 11.7318 7.92462 11.694C7.83346 11.6561 7.75067 11.6007 7.68099 11.5307L2.68099 6.53073C2.54009 6.38984 2.46094 6.19874 2.46094 5.99948C2.46094 5.80023 2.54009 5.60913 2.68099 5.46823C2.82188 5.32734 3.01298 5.24818 3.21224 5.24818C3.4115 5.24818 3.60259 5.32734 3.74349 5.46823L8.21286 9.93761L12.6822 5.46761C12.8231 5.32671 13.0142 5.24756 13.2135 5.24756C13.4127 5.24756 13.6038 5.32671 13.7447 5.46761C13.8856 5.60851 13.9648 5.7996 13.9648 5.99886C13.9648 6.19812 13.8856 6.38921 13.7447 6.53011L13.7435 6.53073Z" fill="#212427"/>
</svg>
