<svg width="54" height="54" viewBox="0 0 54 54" fill="none" xmlns="http://www.w3.org/2000/svg">
<circle cx="27" cy="27" r="26.5" fill="white" stroke="#F2F0F1"/>
<g clip-path="url(#clip0_1_9069)">
<path d="M45 27C45 17.0589 36.9411 9 27 9C17.0589 9 9 17.0589 9 27C9 35.9842 15.5824 43.431 24.1875 44.7813V32.2031H19.6172V27H24.1875V23.0344C24.1875 18.5231 26.8748 16.0312 30.9864 16.0312C32.9558 16.0312 35.0156 16.3828 35.0156 16.3828V20.8125H32.7459C30.5099 20.8125 29.8125 22.2 29.8125 23.6236V27H34.8047L34.0066 32.2031H29.8125V44.7813C38.4176 43.431 45 35.9844 45 27Z" fill="#1877F2"/>
<path d="M34.0066 32.2031L34.8047 27H29.8125V23.6236C29.8125 22.1999 30.5099 20.8125 32.7459 20.8125H35.0156V16.3828C35.0156 16.3828 32.9558 16.0312 30.9863 16.0312C26.8748 16.0312 24.1875 18.5231 24.1875 23.0344V27H19.6172V32.2031H24.1875V44.7813C25.1179 44.9271 26.0582 45.0002 27 45C27.9418 45.0003 28.8821 44.9272 29.8125 44.7813V32.2031H34.0066Z" fill="white"/>
</g>
<defs>
<clipPath id="clip0_1_9069">
<rect width="36" height="36" fill="white" transform="translate(9 9)"/>
</clipPath>
</defs>
</svg>
