<svg width="54" height="54" viewBox="0 0 54 54" fill="none" xmlns="http://www.w3.org/2000/svg">
<circle cx="27" cy="27" r="26.5" fill="white" stroke="#F2F0F1"/>
<g clip-path="url(#clip0_1_9074)">
<path d="M36.5625 9H17.4375C12.7776 9 9 12.7776 9 17.4375V36.5625C9 41.2224 12.7776 45 17.4375 45H36.5625C41.2224 45 45 41.2224 45 36.5625V17.4375C45 12.7776 41.2224 9 36.5625 9Z" fill="url(#paint0_radial_1_9074)"/>
<path d="M36.5625 9H17.4375C12.7776 9 9 12.7776 9 17.4375V36.5625C9 41.2224 12.7776 45 17.4375 45H36.5625C41.2224 45 45 41.2224 45 36.5625V17.4375C45 12.7776 41.2224 9 36.5625 9Z" fill="url(#paint1_radial_1_9074)"/>
<path d="M27.0013 12.9375C23.1822 12.9375 22.7028 12.9542 21.2029 13.0224C19.7058 13.0911 18.6839 13.328 17.7898 13.6758C16.8647 14.0349 16.0802 14.5155 15.2986 15.2973C14.5163 16.0791 14.0358 16.8636 13.6755 17.7882C13.3268 18.6826 13.0895 19.7049 13.0222 21.2013C12.9551 22.7014 12.9375 23.1809 12.9375 27.0001C12.9375 30.8194 12.9544 31.2972 13.0224 32.7971C13.0913 34.2942 13.3283 35.3161 13.6758 36.2102C14.0352 37.1353 14.5157 37.9198 15.2976 38.7014C16.0791 39.4837 16.8636 39.9653 17.7879 40.3245C18.6827 40.6723 19.7048 40.9092 21.2016 40.9778C22.7017 41.046 23.1806 41.0628 26.9996 41.0628C30.8191 41.0628 31.2969 41.046 32.7968 40.9778C34.2939 40.9092 35.317 40.6723 36.2118 40.3245C37.1364 39.9653 37.9198 39.4837 38.7011 38.7014C39.4834 37.9198 39.9638 37.1353 40.3242 36.2107C40.6699 35.3161 40.9072 34.2939 40.9776 32.7974C41.0449 31.2975 41.0625 30.8194 41.0625 27.0001C41.0625 23.1809 41.0449 22.7017 40.9776 21.2016C40.9072 19.7045 40.6699 18.6827 40.3242 17.7886C39.9638 16.8636 39.4834 16.0791 38.7011 15.2973C37.919 14.5152 37.1367 14.0347 36.2109 13.6759C35.3145 13.328 34.292 13.0909 32.7949 13.0224C31.2948 12.9542 30.8173 12.9375 26.9969 12.9375H27.0013ZM25.7397 15.4717C26.1142 15.4711 26.532 15.4717 27.0013 15.4717C30.7561 15.4717 31.201 15.4852 32.6838 15.5526C34.0549 15.6153 34.7991 15.8444 35.2948 16.0369C35.9511 16.2917 36.4189 16.5964 36.9108 17.0887C37.403 17.5809 37.7076 18.0496 37.9631 18.7059C38.1556 19.2009 38.385 19.9451 38.4474 21.3162C38.5148 22.7987 38.5294 23.2439 38.5294 26.9969C38.5294 30.7499 38.5148 31.1953 38.4474 32.6776C38.3847 34.0487 38.1556 34.7929 37.9631 35.288C37.7083 35.9443 37.403 36.4116 36.9108 36.9035C36.4186 37.3957 35.9513 37.7003 35.2948 37.9553C34.7996 38.1486 34.0549 38.3771 32.6838 38.4398C31.2013 38.5072 30.7561 38.5218 27.0013 38.5218C23.2463 38.5218 22.8012 38.5072 21.3189 38.4398C19.9478 38.3766 19.2036 38.1475 18.7075 37.955C18.0513 37.7 17.5825 37.3954 17.0903 36.9032C16.5981 36.411 16.2935 35.9435 16.038 35.2869C15.8455 34.7917 15.6161 34.0476 15.5537 32.6765C15.4863 31.194 15.4728 30.7488 15.4728 26.9934C15.4728 23.2381 15.4863 22.7952 15.5537 21.3127C15.6164 19.9416 15.8455 19.1974 16.038 18.7017C16.293 18.0454 16.5981 17.5767 17.0904 17.0845C17.5826 16.5923 18.0513 16.2876 18.7076 16.0322C19.2033 15.8389 19.9478 15.6104 21.3189 15.5474C22.6162 15.4887 23.1189 15.4711 25.7397 15.4682V15.4717ZM34.5078 17.8066C33.5762 17.8066 32.8203 18.5618 32.8203 19.4936C32.8203 20.4252 33.5762 21.1811 34.5078 21.1811C35.4395 21.1811 36.1953 20.4252 36.1953 19.4936C36.1953 18.5619 35.4395 17.8061 34.5078 17.8061V17.8066ZM27.0013 19.7783C23.0131 19.7783 19.7796 23.0119 19.7796 27.0001C19.7796 30.9884 23.0131 34.2204 27.0013 34.2204C30.9895 34.2204 34.2219 30.9884 34.2219 27.0001C34.2219 23.012 30.9893 19.7783 27.001 19.7783H27.0013ZM27.0013 22.3125C29.59 22.3125 31.6889 24.4111 31.6889 27.0001C31.6889 29.5889 29.59 31.6877 27.0013 31.6877C24.4124 31.6877 22.3138 29.5889 22.3138 27.0001C22.3138 24.4111 24.4124 22.3125 27.0013 22.3125Z" fill="white"/>
</g>
<defs>
<radialGradient id="paint0_radial_1_9074" cx="0" cy="0" r="1" gradientUnits="userSpaceOnUse" gradientTransform="translate(18.5625 47.7727) rotate(-90) scale(35.6787 33.184)">
<stop stop-color="#FFDD55"/>
<stop offset="0.1" stop-color="#FFDD55"/>
<stop offset="0.5" stop-color="#FF543E"/>
<stop offset="1" stop-color="#C837AB"/>
</radialGradient>
<radialGradient id="paint1_radial_1_9074" cx="0" cy="0" r="1" gradientUnits="userSpaceOnUse" gradientTransform="translate(2.96986 11.5933) rotate(78.681) scale(15.9486 65.7405)">
<stop stop-color="#3771C8"/>
<stop offset="0.128" stop-color="#3771C8"/>
<stop offset="1" stop-color="#6600FF" stop-opacity="0"/>
</radialGradient>
<clipPath id="clip0_1_9074">
<rect width="36" height="36" fill="white" transform="translate(9 9)"/>
</clipPath>
</defs>
</svg>
