<svg width="54" height="54" viewBox="0 0 54 54" fill="none" xmlns="http://www.w3.org/2000/svg">
<circle cx="27" cy="27" r="26.5" fill="white" stroke="#F2F0F1"/>
<path d="M41.7083 24.0623H40.5V24H27V30H35.4773C34.2405 33.4928 30.9172 36 27 36C22.0297 36 18 31.9702 18 27C18 22.0297 22.0297 18 27 18C29.2943 18 31.3815 18.8655 32.9708 20.2792L37.2135 16.0365C34.5345 13.5397 30.951 12 27 12C18.7162 12 12 18.7162 12 27C12 35.2838 18.7162 42 27 42C35.2838 42 42 35.2838 42 27C42 25.9943 41.8965 25.0125 41.7083 24.0623Z" fill="#FFC107"/>
<path d="M13.7295 20.0182L18.6577 23.6325C19.9912 20.331 23.2207 18 27 18C29.2942 18 31.3815 18.8655 32.9707 20.2792L37.2135 16.0365C34.5345 13.5397 30.951 12 27 12C21.2385 12 16.242 15.2527 13.7295 20.0182Z" fill="#FF3D00"/>
<path d="M27.0002 42C30.8747 42 34.3952 40.5173 37.057 38.106L32.4145 34.1775C30.8579 35.3613 28.9558 36.0016 27.0002 36C23.0987 36 19.786 33.5123 18.538 30.0405L13.6465 33.8093C16.129 38.667 21.1705 42 27.0002 42Z" fill="#4CAF50"/>
<path d="M41.7083 24.0623H40.5V24H27V30H35.4773C34.8857 31.6623 33.82 33.1149 32.412 34.1782L32.4142 34.1768L37.0568 38.1052C36.7283 38.4037 42 34.5 42 27C42 25.9943 41.8965 25.0125 41.7083 24.0623Z" fill="#1976D2"/>
</svg>
