<svg width="24" height="24" viewBox="0 0 24 24" fill="none" xmlns="http://www.w3.org/2000/svg">
<path fill-rule="evenodd" clip-rule="evenodd" d="M2.4495 4.19404C3.5925 2.93854 5.2245 2.24854 7.14 2.24854C8.886 2.24854 10.7505 3.07354 12 4.68754C13.242 3.07504 15.099 2.24854 16.86 2.24854C18.771 2.24854 20.4 2.93554 21.546 4.18804C22.68 5.43004 23.25 7.13104 23.25 9.01803C23.25 12.267 21.5805 14.8815 19.467 16.914C17.3595 18.942 14.712 20.4885 12.5175 21.624C12.3568 21.7072 12.1783 21.7503 11.9974 21.7498C11.8164 21.7493 11.6383 21.7051 11.478 21.621C9.2835 20.4735 6.636 18.939 4.5285 16.9215C2.415 14.895 0.75 12.2895 0.75 9.01954C0.75 7.13703 1.317 5.43604 2.4495 4.19404ZM4.113 5.70904C3.4305 6.45904 3 7.57954 3 9.01954C3 11.4555 4.224 13.5135 6.0855 15.2955C7.8045 16.9425 9.9855 18.273 12.003 19.353C14.0055 18.288 16.188 16.947 17.9085 15.2925C19.773 13.497 21 11.43 21 9.01954C21 7.57504 20.568 6.45454 19.884 5.70454C19.212 4.97104 18.21 4.50004 16.86 4.50004C15.396 4.50004 13.7205 5.44203 13.0695 7.42503C12.9959 7.65066 12.8528 7.84722 12.6607 7.9866C12.4686 8.12599 12.2373 8.20104 12 8.20104C11.7627 8.20104 11.5314 8.12599 11.3393 7.9866C11.1472 7.84722 11.0041 7.65066 10.9305 7.42503C10.281 5.44503 8.5875 4.50004 7.14 4.50004C5.7855 4.50004 4.785 4.97104 4.113 5.70904Z" fill="black"/>
</svg>
