<svg width="24" height="24" viewBox="0 0 24 24" fill="none" xmlns="http://www.w3.org/2000/svg">
<path d="M13.1996 20.4C13.1996 20.8159 13.415 21.2022 13.7687 21.4208C14.1225 21.6395 14.5643 21.6593 14.9363 21.4733L19.7363 19.0733C20.1428 18.8701 20.3996 18.4546 20.3996 18V11.0833C20.3996 10.6674 20.1843 10.2812 19.8305 10.0625C19.4767 9.84388 19.0349 9.824 18.663 10.01L13.863 12.41C13.4564 12.6133 13.1996 13.0288 13.1996 13.4833V20.4Z" fill="#FFFCFC"/>
<path d="M18.253 7.5317C18.6595 7.32843 18.9163 6.91291 18.9163 6.45838C18.9163 6.00386 18.6595 5.58834 18.253 5.38507L12.5363 2.52671C12.1984 2.3578 11.8008 2.3578 11.463 2.52671L5.74623 5.38507C5.33969 5.58834 5.08289 6.00386 5.08289 6.45838C5.08289 6.91291 5.33969 7.32843 5.74623 7.5317L11.463 10.3901C11.8008 10.559 12.1984 10.559 12.5363 10.3901L18.253 7.5317Z" fill="#FFFCFC"/>
<path d="M5.33627 10.01C4.96428 9.824 4.52251 9.84388 4.16873 10.0625C3.81495 10.2812 3.59961 10.6674 3.59961 11.0833V18C3.59961 18.4546 3.85641 18.8701 4.26295 19.0733L9.06295 21.4733C9.43494 21.6593 9.87671 21.6395 10.2305 21.4208C10.5843 21.2022 10.7996 20.8159 10.7996 20.4V13.4833C10.7996 13.0288 10.5428 12.6133 10.1363 12.41L5.33627 10.01Z" fill="#FFFCFC"/>
</svg>
