<svg width="38" height="38" viewBox="0 0 38 38" fill="none" xmlns="http://www.w3.org/2000/svg">
<path d="M15.8334 26.125L20.5834 27.7083C20.5834 27.7083 32.4584 25.3333 34.0417 25.3333C35.6251 25.3333 35.6251 26.9166 34.0417 28.5C32.4584 30.0833 26.9167 34.8333 22.1667 34.8333C17.4167 34.8333 14.2501 32.4583 11.0834 32.4583H3.16675" stroke="black" stroke-opacity="0.81" stroke-width="2" stroke-linecap="round" stroke-linejoin="round"/>
<path d="M3.16675 22.9583C4.75008 21.375 7.91675 19 11.0834 19C14.2501 19 21.7709 22.1666 22.9584 23.75C24.1459 25.3333 20.5834 27.7083 20.5834 27.7083M12.6667 14.25V7.91665C12.6667 7.49672 12.8336 7.09399 13.1305 6.79706C13.4274 6.50013 13.8302 6.33331 14.2501 6.33331H33.2501C33.67 6.33331 34.0727 6.50013 34.3697 6.79706C34.6666 7.09399 34.8334 7.49672 34.8334 7.91665V20.5833" stroke="black" stroke-opacity="0.81" stroke-width="2" stroke-linecap="round" stroke-linejoin="round"/>
<path d="M19.7917 6.33331H27.7084V13.4583H19.7917V6.33331Z" stroke="black" stroke-opacity="0.81" stroke-width="2" stroke-linecap="round" stroke-linejoin="round"/>
</svg>
