<svg width="24" height="24" viewBox="0 0 24 24" fill="none" xmlns="http://www.w3.org/2000/svg">
<path fill-rule="evenodd" clip-rule="evenodd" d="M4.7999 5.99998C3.47442 5.99998 2.3999 7.07449 2.3999 8.39998V18C2.3999 19.3255 3.47442 20.4 4.7999 20.4H19.1999C20.5254 20.4 21.5999 19.3255 21.5999 18V8.39998C21.5999 7.07449 20.5254 5.99998 19.1999 5.99998H17.297C16.9787 5.99998 16.6735 5.87355 16.4484 5.6485L15.1028 4.30292C14.6528 3.85283 14.0423 3.59998 13.4058 3.59998H10.594C9.9575 3.59998 9.34705 3.85283 8.89696 4.30292L7.55137 5.6485C7.32633 5.87355 7.02111 5.99998 6.70285 5.99998H4.7999ZM11.9999 16.8C13.9881 16.8 15.5999 15.1882 15.5999 13.2C15.5999 11.2118 13.9881 9.59998 11.9999 9.59998C10.0117 9.59998 8.3999 11.2118 8.3999 13.2C8.3999 15.1882 10.0117 16.8 11.9999 16.8Z" fill="#FFFCFC"/>
</svg>
