<svg width="24" height="24" viewBox="0 0 24 24" fill="none" xmlns="http://www.w3.org/2000/svg">
<path d="M20.897 3.10297C19.9598 2.16571 18.4402 2.16571 17.5029 3.10297L8.39999 12.2059V15.6H11.7941L20.897 6.49708C21.8343 5.55982 21.8343 4.04023 20.897 3.10297Z" fill="#FFFCFC"/>
<path fill-rule="evenodd" clip-rule="evenodd" d="M2.39999 7.20002C2.39999 5.87454 3.47451 4.80002 4.79999 4.80002H9.59999C10.2627 4.80002 10.8 5.33728 10.8 6.00002C10.8 6.66277 10.2627 7.20002 9.59999 7.20002H4.79999V19.2H16.8V14.4C16.8 13.7373 17.3373 13.2 18 13.2C18.6627 13.2 19.2 13.7373 19.2 14.4V19.2C19.2 20.5255 18.1255 21.6 16.8 21.6H4.79999C3.47451 21.6 2.39999 20.5255 2.39999 19.2V7.20002Z" fill="#FFFCFC"/>
</svg>
