<svg width="157" height="47" viewBox="0 0 157 47" fill="none" xmlns="http://www.w3.org/2000/svg">
<path fill-rule="evenodd" clip-rule="evenodd" d="M73.5172 5.07081C73.2998 5.20012 72.5415 5.60294 72.5156 5.6029C72.5012 5.60287 72.4678 5.62673 72.4415 5.65589C72.4151 5.6851 72.3551 5.71964 72.3081 5.73267C72.2612 5.74573 72.2036 5.77759 72.1802 5.80346C72.1569 5.82938 72.0991 5.86095 72.052 5.87369C72.0049 5.88644 71.932 5.92626 71.89 5.96222C71.8481 5.99822 71.7928 6.02764 71.7672 6.02764C71.7415 6.02764 71.684 6.05949 71.6393 6.09843C71.5945 6.13737 71.537 6.16922 71.5114 6.16922C71.4857 6.16922 71.4281 6.20108 71.3834 6.24002C71.3387 6.27896 71.2753 6.31081 71.2425 6.31081C71.2097 6.31081 71.1541 6.34267 71.1189 6.38161C71.0837 6.42054 71.0222 6.4524 70.9821 6.4524C70.942 6.4524 70.8846 6.48426 70.8545 6.5232C70.8244 6.56213 70.7668 6.59399 70.7266 6.59399C70.6864 6.59399 70.6288 6.62585 70.5987 6.66478C70.5686 6.70372 70.5078 6.73558 70.4637 6.73558C70.4195 6.73558 70.3546 6.76744 70.3195 6.80637C70.2843 6.84531 70.2227 6.87717 70.1827 6.87717C70.1426 6.87717 70.0852 6.90903 70.0551 6.94796C70.0249 6.9869 69.9642 7.01876 69.9201 7.01876C69.8759 7.01876 69.811 7.05061 69.7758 7.08955C69.7407 7.12849 69.6818 7.16035 69.645 7.16035C69.6082 7.16035 69.5415 7.1922 69.4968 7.23114C69.452 7.27008 69.3965 7.30193 69.3733 7.30193C69.3501 7.30193 69.2255 7.36356 69.0963 7.43885C68.9671 7.51417 68.8268 7.58794 68.7845 7.60281C68.7422 7.61768 68.6879 7.65162 68.6639 7.67821C68.6398 7.70482 68.5816 7.737 68.5345 7.74974C68.4873 7.76249 68.4145 7.80231 68.3725 7.83827C68.3305 7.87427 68.2753 7.90369 68.2496 7.90369C68.224 7.90369 68.1664 7.93554 68.1217 7.97448C68.077 8.01342 68.0194 8.04527 67.9938 8.04527C67.9682 8.04527 67.9106 8.07713 67.8659 8.11607C67.8212 8.15501 67.7578 8.18686 67.725 8.18686C67.6921 8.18686 67.6365 8.21872 67.6014 8.25766C67.5662 8.29659 67.5086 8.32845 67.4734 8.32845C67.4383 8.32845 67.3807 8.36031 67.3455 8.39925C67.3104 8.43818 67.2488 8.47004 67.2087 8.47004C67.1687 8.47004 67.1113 8.5019 67.0811 8.54084C67.051 8.57977 66.9935 8.61163 66.9532 8.61163C66.913 8.61163 66.8554 8.64349 66.8253 8.68242C66.7952 8.72136 66.7344 8.75322 66.6903 8.75322C66.6462 8.75322 66.5813 8.78508 66.5461 8.82401C66.5109 8.86295 66.4494 8.89481 66.4093 8.89481C66.3692 8.89481 66.3118 8.92666 66.2817 8.9656C66.2516 9.00454 66.1967 9.0364 66.1597 9.0364C66.1227 9.0364 66.0559 9.06825 66.0112 9.10719C65.9665 9.14613 65.9017 9.17798 65.8673 9.17798C65.8329 9.17798 65.7681 9.20984 65.7234 9.24878C65.6787 9.28772 65.6243 9.31957 65.6027 9.31957C65.581 9.31957 65.4406 9.38729 65.2907 9.47001C65.1407 9.55273 64.941 9.66002 64.8467 9.70841C64.7525 9.75683 64.6411 9.82451 64.5991 9.85885C64.5572 9.89322 64.5019 9.92133 64.4763 9.92133C64.4506 9.92133 64.3931 9.95318 64.3484 9.99212C64.3036 10.0311 64.2402 10.0629 64.2074 10.0629C64.1746 10.0629 64.119 10.0948 64.0838 10.1337C64.0487 10.1726 63.9911 10.2045 63.9559 10.2045C63.9207 10.2045 63.8632 10.2364 63.828 10.2753C63.7928 10.3142 63.7313 10.3461 63.6912 10.3461C63.6511 10.3461 63.5937 10.3779 63.5636 10.4169C63.5335 10.4558 63.4759 10.4877 63.4357 10.4877C63.3955 10.4877 63.3379 10.5195 63.3078 10.5585C63.2777 10.5974 63.2169 10.6293 63.1728 10.6293C63.1286 10.6293 63.0637 10.6611 63.0286 10.7001C62.9934 10.739 62.9318 10.7709 62.8918 10.7709C62.8517 10.7709 62.7943 10.8027 62.7642 10.8417C62.7341 10.8806 62.6792 10.9124 62.6422 10.9124C62.6052 10.9124 62.5384 10.9443 62.4937 10.9832C62.4489 11.0222 62.3845 11.054 62.3505 11.054C62.3164 11.054 62.267 11.0779 62.2406 11.1071C62.2142 11.1363 62.1541 11.1705 62.107 11.1833C62.0598 11.196 61.987 11.2358 61.945 11.2718C61.9031 11.3078 61.851 11.3372 61.8293 11.3372C61.8076 11.3372 61.663 11.4089 61.5079 11.4965C61.3528 11.5841 61.207 11.6558 61.1839 11.6558C61.1608 11.6558 61.1419 11.6705 61.1419 11.6884C61.1419 11.7064 61.0879 11.7406 61.022 11.7644C60.956 11.7882 60.8677 11.8372 60.8258 11.8733C60.7838 11.9094 60.7285 11.939 60.7029 11.939C60.6773 11.939 60.6197 11.9708 60.575 12.0098C60.5303 12.0487 60.4727 12.0806 60.4471 12.0806C60.4215 12.0806 60.3639 12.1124 60.3192 12.1513C60.2745 12.1903 60.2169 12.2221 60.1913 12.2221C60.1656 12.2221 60.1081 12.254 60.0634 12.2929C60.0186 12.3319 59.9552 12.3637 59.9224 12.3637C59.8896 12.3637 59.834 12.3956 59.7988 12.4345C59.7637 12.4735 59.7021 12.5053 59.662 12.5053C59.622 12.5053 59.5646 12.5372 59.5344 12.5761C59.5043 12.6151 59.4494 12.6469 59.4125 12.6469C59.3755 12.6469 59.3086 12.6788 59.2639 12.7177C59.2192 12.7566 59.1545 12.7885 59.12 12.7885C59.0856 12.7885 59.0209 12.8204 58.9761 12.8593C58.9314 12.8982 58.868 12.9301 58.8352 12.9301C58.8024 12.9301 58.7468 12.9619 58.7116 13.0009C58.6764 13.0398 58.6175 13.0717 58.5807 13.0717C58.5439 13.0717 58.4772 13.1035 58.4325 13.1425C58.3878 13.1814 58.3302 13.2133 58.3046 13.2133C58.279 13.2133 58.2214 13.2451 58.1767 13.2841C58.132 13.323 58.0686 13.3549 58.0357 13.3549C58.0029 13.3549 57.9761 13.3777 57.9761 13.4056C57.9761 13.4335 57.9473 13.4664 57.9122 13.4787C57.877 13.4911 57.8482 13.5175 57.8482 13.5375C57.8482 13.5574 57.8194 13.6143 57.7842 13.6638C57.7206 13.7533 57.7203 13.807 57.7208 23.9699C57.7212 32.8042 57.7275 34.1981 57.7674 34.2746C57.7927 34.3233 57.8269 34.3949 57.8433 34.4339C57.8788 34.5181 58.0507 34.664 58.1144 34.664C58.1391 34.664 58.1959 34.6958 58.2407 34.7348C58.2854 34.7737 58.3429 34.8056 58.3686 34.8056C58.3942 34.8056 58.4517 34.8374 58.4965 34.8763C58.5412 34.9153 58.608 34.9471 58.645 34.9471C58.682 34.9471 58.7369 34.979 58.767 35.0179C58.7971 35.0569 58.8523 35.0887 58.8897 35.0887C58.9271 35.0887 58.9908 35.1206 59.0314 35.1595C59.0719 35.1985 59.1297 35.2303 59.1599 35.2303C59.19 35.2303 59.2512 35.2622 59.2959 35.3011C59.3406 35.34 59.3982 35.3719 59.4238 35.3719C59.4494 35.3719 59.507 35.4038 59.5517 35.4427C59.5964 35.4816 59.6467 35.5135 59.6634 35.5135C59.6801 35.5135 59.8721 35.6108 60.09 35.7297C60.7613 36.0959 61.0589 36.2512 61.1339 36.2746C61.1735 36.2869 61.2058 36.3112 61.2058 36.3287C61.2058 36.3461 61.2617 36.3769 61.33 36.3973C61.3983 36.4177 61.4721 36.4581 61.4938 36.4872C61.5156 36.5162 61.5678 36.54 61.6098 36.54C61.6518 36.54 61.7108 36.5719 61.7409 36.6108C61.771 36.6497 61.8262 36.6816 61.8636 36.6816C61.901 36.6816 61.9647 36.7135 62.0053 36.7524C62.0458 36.7913 62.1036 36.8232 62.1338 36.8232C62.1639 36.8232 62.2251 36.855 62.2698 36.894C62.3145 36.9329 62.3721 36.9648 62.3977 36.9648C62.4234 36.9648 62.4809 36.9966 62.5257 37.0356C62.5704 37.0745 62.6372 37.1064 62.6742 37.1064C62.7112 37.1064 62.766 37.1382 62.7962 37.1772C62.8263 37.2161 62.8838 37.248 62.9241 37.248C62.9643 37.248 63.0219 37.2798 63.052 37.3188C63.0821 37.3577 63.1376 37.3895 63.1752 37.3895C63.2129 37.3895 63.2804 37.4214 63.3251 37.4603C63.3698 37.4993 63.4274 37.5311 63.453 37.5311C63.4786 37.5311 63.5362 37.563 63.5809 37.6019C63.6256 37.6409 63.6768 37.6727 63.6945 37.6727C63.7123 37.6727 63.8827 37.7586 64.0732 37.8636C64.2637 37.9686 64.5203 38.1041 64.6434 38.1648C64.7665 38.2255 64.9205 38.3069 64.9855 38.3456C65.0506 38.3843 65.1239 38.4161 65.1485 38.4161C65.1731 38.4161 65.2264 38.4479 65.267 38.4869C65.3075 38.5258 65.3675 38.5577 65.4001 38.5577C65.4328 38.5577 65.4841 38.5895 65.5142 38.6284C65.5444 38.6674 65.5996 38.6992 65.6369 38.6992C65.6743 38.6992 65.7381 38.7311 65.7786 38.77C65.8192 38.809 65.877 38.8408 65.9071 38.8408C65.9372 38.8408 65.9985 38.8727 66.0432 38.9116C66.0879 38.9506 66.1455 38.9824 66.1711 38.9824C66.1967 38.9824 66.2543 39.0143 66.299 39.0532C66.3437 39.0922 66.4105 39.124 66.4475 39.124C66.4845 39.124 66.5394 39.1559 66.5695 39.1948C66.5996 39.2337 66.6572 39.2656 66.6974 39.2656C66.7376 39.2656 66.7952 39.2975 66.8253 39.3364C66.8554 39.3753 66.9109 39.4072 66.9486 39.4072C66.9863 39.4072 67.0537 39.439 67.0984 39.478C67.1432 39.5169 67.2007 39.5488 67.2264 39.5488C67.252 39.5488 67.3095 39.5806 67.3543 39.6196C67.399 39.6585 67.4565 39.6904 67.4822 39.6904C67.5078 39.6904 67.5654 39.7222 67.6101 39.7612C67.6548 39.8001 67.7124 39.832 67.738 39.832C67.7636 39.832 67.8212 39.8638 67.8659 39.9027C67.9106 39.9417 67.9646 39.9735 67.9858 39.9735C68.007 39.9735 68.0767 40.0037 68.1406 40.0405C68.3758 40.176 68.8665 40.4297 68.9335 40.4504C68.9715 40.4622 69.02 40.4951 69.0414 40.5236C69.0627 40.552 69.1145 40.5753 69.1565 40.5753C69.1985 40.5753 69.2575 40.6072 69.2876 40.6461C69.3177 40.685 69.3729 40.7169 69.4103 40.7169C69.4477 40.7169 69.5114 40.7487 69.552 40.7877C69.5925 40.8266 69.6523 40.8585 69.6848 40.8585C69.7173 40.8585 69.7726 40.8903 69.8078 40.9293C69.843 40.9682 69.8986 41.0001 69.9314 41.0001C69.9642 41.0001 70.0276 41.0319 70.0724 41.0709C70.1171 41.1098 70.1839 41.1416 70.2209 41.1416C70.2579 41.1416 70.3127 41.1735 70.3429 41.2124C70.373 41.2514 70.4285 41.2832 70.4661 41.2832C70.5038 41.2832 70.5712 41.3151 70.616 41.354C70.6607 41.393 70.7182 41.4248 70.7439 41.4248C70.7695 41.4248 70.8271 41.4567 70.8718 41.4956C70.9165 41.5346 70.9741 41.5664 70.9997 41.5664C71.0253 41.5664 71.0829 41.5983 71.1276 41.6372C71.1723 41.6761 71.2299 41.708 71.2555 41.708C71.2811 41.708 71.3387 41.7399 71.3834 41.7788C71.4281 41.8177 71.4821 41.8496 71.5033 41.8496C71.5245 41.8496 71.5942 41.8789 71.6582 41.9148C71.7221 41.9507 71.9039 42.048 72.0622 42.1311C72.2205 42.2143 72.4197 42.3203 72.5049 42.3668C72.59 42.4133 72.6778 42.4513 72.6998 42.4513C72.7219 42.4513 72.7732 42.4832 72.8137 42.5221C72.8542 42.5611 72.9118 42.5929 72.9416 42.5929C72.9714 42.5929 73.029 42.6248 73.0695 42.6637C73.1101 42.7027 73.1679 42.7345 73.198 42.7345C73.2281 42.7345 73.2893 42.7664 73.3341 42.8053C73.3788 42.8443 73.4445 42.8761 73.48 42.8761C73.5155 42.8761 73.5698 42.904 73.6006 42.9381C73.6406 42.9824 73.7078 43 73.837 43C73.9662 43 74.0333 42.9824 74.0734 42.9381C74.1042 42.904 74.1584 42.8761 74.194 42.8761C74.2295 42.8761 74.2952 42.8443 74.3399 42.8053C74.3846 42.7664 74.4458 42.7345 74.476 42.7345C74.5061 42.7345 74.5639 42.7027 74.6044 42.6637C74.645 42.6248 74.7026 42.5929 74.7324 42.5929C74.7622 42.5929 74.8197 42.5611 74.8603 42.5221C74.9008 42.4832 74.9526 42.4513 74.9754 42.4513C74.9982 42.4513 75.0844 42.4115 75.1671 42.3628C75.2498 42.3142 75.3369 42.2744 75.3607 42.2744C75.3844 42.2744 75.4039 42.2597 75.4039 42.2417C75.4039 42.2237 75.4575 42.1895 75.523 42.1655C75.5886 42.1416 75.6857 42.0926 75.7389 42.0567C75.7921 42.0208 75.8549 41.9914 75.8785 41.9913C75.9021 41.9913 75.958 41.9593 76.0027 41.9204C76.0475 41.8814 76.1122 41.8496 76.1466 41.8496C76.1811 41.8496 76.2458 41.8177 76.2905 41.7788C76.3353 41.7399 76.3928 41.708 76.4184 41.708C76.4441 41.708 76.5016 41.6761 76.5463 41.6372C76.5911 41.5983 76.6545 41.5664 76.6873 41.5664C76.7201 41.5664 76.7757 41.5346 76.8109 41.4956C76.8461 41.4567 76.9076 41.4248 76.9477 41.4248C76.9878 41.4248 77.0452 41.393 77.0753 41.354C77.1054 41.3151 77.163 41.2832 77.2032 41.2832C77.2434 41.2832 77.301 41.2514 77.3311 41.2124C77.3612 41.1735 77.4161 41.1416 77.4531 41.1416C77.4901 41.1416 77.5569 41.1098 77.6016 41.0709C77.6463 41.0319 77.7098 41.0001 77.7426 41.0001C77.7754 41.0001 77.831 40.9682 77.8662 40.9293C77.9013 40.8903 77.9629 40.8585 78.003 40.8585C78.043 40.8585 78.1004 40.8266 78.1305 40.7877C78.1607 40.7487 78.2182 40.7169 78.2585 40.7169C78.2987 40.7169 78.3562 40.685 78.3864 40.6461C78.4165 40.6072 78.4755 40.5753 78.5175 40.5753C78.5595 40.5753 78.6117 40.5515 78.6334 40.5224C78.6552 40.4934 78.7289 40.453 78.7972 40.4326C78.8655 40.4122 78.9214 40.3814 78.9214 40.3639C78.9214 40.3465 78.9538 40.3212 78.9934 40.3077C79.0329 40.2942 79.1988 40.2134 79.362 40.1283C79.5252 40.0432 79.6737 39.9735 79.692 39.9735C79.7104 39.9735 79.747 39.9497 79.7733 39.9205C79.7997 39.8913 79.8598 39.857 79.907 39.8443C79.9541 39.8316 80.027 39.7917 80.0689 39.7558C80.1109 39.7198 80.172 39.6904 80.2048 39.6904C80.2376 39.6904 80.2933 39.6585 80.3284 39.6196C80.3636 39.5806 80.4252 39.5488 80.4652 39.5488C80.5053 39.5488 80.5627 39.5169 80.5928 39.478C80.6229 39.439 80.6805 39.4072 80.7207 39.4072C80.761 39.4072 80.8185 39.3753 80.8486 39.3364C80.8788 39.2975 80.9363 39.2656 80.9765 39.2656C81.0168 39.2656 81.0743 39.2337 81.1045 39.1948C81.1346 39.1559 81.1953 39.124 81.2395 39.124C81.2836 39.124 81.3485 39.0922 81.3837 39.0532C81.4189 39.0143 81.4764 38.9824 81.5116 38.9824C81.5468 38.9824 81.6043 38.9506 81.6395 38.9116C81.6747 38.8727 81.7362 38.8408 81.7763 38.8408C81.8164 38.8408 81.8738 38.809 81.9039 38.77C81.934 38.7311 81.9916 38.6992 82.0318 38.6992C82.072 38.6992 82.1296 38.6674 82.1597 38.6284C82.1898 38.5895 82.2488 38.5577 82.2908 38.5577C82.3328 38.5577 82.385 38.5339 82.4068 38.5048C82.4286 38.4757 82.5023 38.4353 82.5706 38.415C82.6389 38.3946 82.6948 38.3637 82.6948 38.3463C82.6948 38.3289 82.7272 38.3042 82.7667 38.2915C82.8397 38.2681 83.2576 38.0543 83.5336 37.8993C83.6168 37.8526 83.7009 37.8143 83.7204 37.8143C83.74 37.8143 83.7925 37.7825 83.8372 37.7435C83.882 37.7046 83.9395 37.6727 83.9651 37.6727C83.9908 37.6727 84.0483 37.6409 84.0931 37.6019C84.1378 37.563 84.2052 37.5311 84.2429 37.5311C84.2806 37.5311 84.336 37.4993 84.3662 37.4603C84.3963 37.4214 84.4539 37.3895 84.4941 37.3895C84.5343 37.3895 84.5919 37.3577 84.622 37.3188C84.6521 37.2798 84.7129 37.248 84.757 37.248C84.8012 37.248 84.866 37.2161 84.9012 37.1772C84.9364 37.1382 84.994 37.1064 85.0291 37.1064C85.0643 37.1064 85.1219 37.0745 85.157 37.0356C85.1922 36.9966 85.2538 36.9648 85.2938 36.9648C85.3339 36.9648 85.3913 36.9329 85.4214 36.894C85.4516 36.855 85.5091 36.8232 85.5493 36.8232C85.5896 36.8232 85.6471 36.7913 85.6773 36.7524C85.7074 36.7135 85.7649 36.6816 85.8052 36.6816C85.8454 36.6816 85.9029 36.6497 85.9331 36.6108C85.9632 36.5719 86.0181 36.54 86.055 36.54C86.092 36.54 86.1589 36.5082 86.2036 36.4692C86.2483 36.4303 86.3053 36.3984 86.3302 36.3984C86.3551 36.3984 86.4287 36.3667 86.4938 36.328C86.7214 36.1924 87.2087 35.9383 87.2409 35.9383C87.2588 35.9383 87.3101 35.9064 87.3548 35.8675C87.3995 35.8285 87.4571 35.7967 87.4827 35.7967C87.5083 35.7967 87.5659 35.7648 87.6106 35.7259C87.6553 35.6869 87.7187 35.6551 87.7515 35.6551C87.7844 35.6551 87.84 35.6232 87.8751 35.5843C87.9103 35.5454 87.9719 35.5135 88.0119 35.5135C88.052 35.5135 88.1094 35.4816 88.1395 35.4427C88.1696 35.4038 88.2272 35.3719 88.2674 35.3719C88.3077 35.3719 88.3652 35.34 88.3953 35.3011C88.4255 35.2622 88.4862 35.2303 88.5304 35.2303C88.5745 35.2303 88.6394 35.1985 88.6746 35.1595C88.7097 35.1206 88.7673 35.0887 88.8025 35.0887C88.8377 35.0887 88.8952 35.0569 88.9304 35.0179C88.9656 34.979 89.0271 34.9471 89.0672 34.9471C89.1073 34.9471 89.1647 34.9153 89.1948 34.8763C89.2249 34.8374 89.2825 34.8056 89.3227 34.8056C89.3629 34.8056 89.4205 34.7737 89.4506 34.7348C89.4807 34.6958 89.5419 34.664 89.5866 34.664C89.6313 34.664 89.676 34.6407 89.6858 34.6122C89.6957 34.5838 89.7312 34.5508 89.7648 34.539C89.7983 34.5273 89.8258 34.5013 89.8258 34.4813C89.8258 34.4614 89.8545 34.4045 89.8897 34.355C89.9534 34.2655 89.9537 34.2118 89.9532 24.0312C89.9528 15.0939 89.9468 13.7861 89.9057 13.7088C89.8799 13.6602 89.8498 13.593 89.8388 13.5596C89.8278 13.5261 89.793 13.4897 89.7613 13.4786C89.7297 13.4675 89.6957 13.4351 89.6858 13.4066C89.676 13.3781 89.6406 13.3549 89.6072 13.3549C89.5739 13.3549 89.51 13.323 89.4653 13.2841C89.4206 13.2451 89.3537 13.2133 89.3167 13.2133C89.2798 13.2133 89.2249 13.1814 89.1948 13.1425C89.1647 13.1035 89.1071 13.0717 89.0669 13.0717C89.0266 13.0717 88.9691 13.0398 88.939 13.0009C88.9088 12.9619 88.8534 12.9301 88.8157 12.9301C88.778 12.9301 88.7106 12.8982 88.6658 12.8593C88.6211 12.8204 88.5543 12.7885 88.5173 12.7885C88.4803 12.7885 88.4255 12.7566 88.3953 12.7177C88.3652 12.6788 88.3077 12.6469 88.2674 12.6469C88.2272 12.6469 88.1696 12.6151 88.1395 12.5761C88.1094 12.5372 88.052 12.5053 88.0119 12.5053C87.9719 12.5053 87.9103 12.4735 87.8751 12.4345C87.84 12.3956 87.7844 12.3637 87.7515 12.3637C87.7187 12.3637 87.6553 12.3319 87.6106 12.2929C87.5659 12.254 87.5083 12.2221 87.4827 12.2221C87.4571 12.2221 87.3995 12.1903 87.3548 12.1513C87.3101 12.1124 87.2576 12.0806 87.2382 12.0806C87.2188 12.0806 87.0916 12.0189 86.9555 11.9435C86.5048 11.6939 86.1013 11.4838 86.0313 11.4621C85.9933 11.4503 85.9448 11.4174 85.9235 11.3889C85.9022 11.3605 85.8503 11.3372 85.8084 11.3372C85.7664 11.3372 85.7074 11.3054 85.6773 11.2664C85.6471 11.2275 85.5896 11.1956 85.5493 11.1956C85.5091 11.1956 85.4516 11.1638 85.4214 11.1248C85.3913 11.0859 85.3339 11.054 85.2938 11.054C85.2538 11.054 85.1922 11.0222 85.157 10.9832C85.1219 10.9443 85.0643 10.9124 85.0291 10.9124C84.994 10.9124 84.9364 10.8806 84.9012 10.8417C84.866 10.8027 84.8012 10.7709 84.757 10.7709C84.7129 10.7709 84.6521 10.739 84.622 10.7001C84.5919 10.6611 84.5343 10.6293 84.4941 10.6293C84.4539 10.6293 84.3963 10.5974 84.3662 10.5585C84.336 10.5195 84.2786 10.4877 84.2386 10.4877C84.1985 10.4877 84.137 10.4558 84.1018 10.4169C84.0666 10.3779 84.011 10.3461 83.9782 10.3461C83.9454 10.3461 83.882 10.3142 83.8372 10.2753C83.7925 10.2364 83.735 10.2045 83.7093 10.2045C83.6837 10.2045 83.6261 10.1726 83.5814 10.1337C83.5367 10.0948 83.4791 10.0629 83.4535 10.0629C83.4279 10.0629 83.3703 10.0311 83.3256 9.99212C83.2809 9.95318 83.2297 9.92133 83.2117 9.92133C83.1795 9.92133 82.6923 9.66717 82.4646 9.53157C82.3996 9.49284 82.3259 9.46116 82.301 9.46116C82.2761 9.46116 82.2191 9.4293 82.1744 9.39037C82.1297 9.35143 82.0629 9.31957 82.0259 9.31957C81.9889 9.31957 81.934 9.28772 81.9039 9.24878C81.8738 9.20984 81.8162 9.17798 81.776 9.17798C81.7358 9.17798 81.6782 9.14613 81.6481 9.10719C81.618 9.06825 81.5604 9.0364 81.5202 9.0364C81.4799 9.0364 81.4224 9.00454 81.3923 8.9656C81.3621 8.92666 81.3047 8.89481 81.2647 8.89481C81.2246 8.89481 81.163 8.86295 81.1279 8.82401C81.0927 8.78508 81.0278 8.75322 80.9836 8.75322C80.9395 8.75322 80.8788 8.72136 80.8486 8.68242C80.8185 8.64349 80.761 8.61163 80.7207 8.61163C80.6805 8.61163 80.6229 8.57977 80.5928 8.54084C80.5627 8.5019 80.5051 8.47004 80.4649 8.47004C80.4247 8.47004 80.3671 8.43818 80.337 8.39925C80.3069 8.36031 80.2514 8.32845 80.2137 8.32845C80.176 8.32845 80.1086 8.29659 80.0639 8.25766C80.0192 8.21872 79.9616 8.18686 79.936 8.18686C79.9104 8.18686 79.8528 8.15501 79.8081 8.11607C79.7634 8.07713 79.7058 8.04527 79.6801 8.04527C79.6545 8.04527 79.5992 8.01586 79.5573 7.97986C79.5153 7.9439 79.4425 7.90408 79.3953 7.89133C79.3482 7.87859 79.2881 7.84432 79.2617 7.81512C79.2353 7.78595 79.1982 7.7621 79.1791 7.7621C79.16 7.7621 79.0122 7.69042 78.8505 7.60281C78.6888 7.5152 78.5399 7.44352 78.5195 7.44352C78.4991 7.44352 78.4458 7.41167 78.401 7.37273C78.3563 7.33379 78.2895 7.30193 78.2525 7.30193C78.2155 7.30193 78.1607 7.27008 78.1305 7.23114C78.1004 7.1922 78.0429 7.16035 78.0026 7.16035C77.9624 7.16035 77.9048 7.12849 77.8747 7.08955C77.8446 7.05061 77.7872 7.01876 77.7471 7.01876C77.7071 7.01876 77.6455 6.9869 77.6103 6.94796C77.5752 6.90903 77.5176 6.87717 77.4824 6.87717C77.4473 6.87717 77.3897 6.84531 77.3545 6.80637C77.3193 6.76744 77.2545 6.73558 77.2103 6.73558C77.1662 6.73558 77.1054 6.70372 77.0753 6.66478C77.0452 6.62585 76.9876 6.59399 76.9474 6.59399C76.9071 6.59399 76.8496 6.56213 76.8195 6.5232C76.7893 6.48426 76.7319 6.4524 76.6919 6.4524C76.6518 6.4524 76.5903 6.42054 76.5551 6.38161C76.5199 6.34267 76.4643 6.31081 76.4315 6.31081C76.3987 6.31081 76.3353 6.27896 76.2905 6.24002C76.2458 6.20108 76.1883 6.16922 76.1626 6.16922C76.137 6.16922 76.0794 6.13737 76.0347 6.09843C75.99 6.05949 75.9324 6.02764 75.9068 6.02764C75.8812 6.02764 75.8236 5.99578 75.7789 5.95684C75.7342 5.9179 75.6817 5.88605 75.6623 5.88605C75.6429 5.88605 75.5157 5.82438 75.3796 5.74899C74.9289 5.4994 74.5255 5.28925 74.4554 5.26755C74.4174 5.2558 74.3689 5.22288 74.3476 5.19442C74.3263 5.166 74.2768 5.14271 74.2377 5.14271C74.1986 5.14271 74.1334 5.11085 74.0928 5.07191C73.9934 4.97652 73.6768 4.97591 73.5172 5.07081ZM74.1162 6.34621C74.1463 6.38515 74.2039 6.417 74.2441 6.417C74.2844 6.417 74.3419 6.44886 74.372 6.4878C74.4022 6.52674 74.4596 6.55859 74.4996 6.55859C74.5397 6.55859 74.6012 6.59045 74.6364 6.62939C74.6716 6.66832 74.7272 6.70018 74.76 6.70018C74.7928 6.70018 74.8562 6.73204 74.901 6.77098C74.9457 6.80991 75.0032 6.84177 75.0289 6.84177C75.0545 6.84177 75.1121 6.87363 75.1568 6.91256C75.2015 6.9515 75.2591 6.98336 75.2847 6.98336C75.3103 6.98336 75.3679 7.01522 75.4126 7.05415C75.4573 7.09309 75.5098 7.12495 75.5292 7.12495C75.5485 7.12495 75.6758 7.18661 75.8119 7.26201C76.2626 7.51159 76.666 7.72175 76.7361 7.74344C76.7741 7.7552 76.8226 7.78811 76.8439 7.81657C76.8652 7.845 76.9078 7.86829 76.9384 7.86829C76.9691 7.86829 77.0307 7.90015 77.0754 7.93908C77.1202 7.97802 77.187 8.00988 77.224 8.00988C77.2609 8.00988 77.3158 8.04174 77.3459 8.08067C77.3761 8.11961 77.4336 8.15147 77.4739 8.15147C77.5141 8.15147 77.5716 8.18332 77.6018 8.22226C77.6319 8.2612 77.6893 8.29306 77.7294 8.29306C77.7694 8.29306 77.831 8.32491 77.8662 8.36385C77.9013 8.40279 77.9662 8.43464 78.0104 8.43464C78.0545 8.43464 78.1153 8.4665 78.1454 8.50544C78.1755 8.54438 78.2331 8.57623 78.2733 8.57623C78.3135 8.57623 78.3711 8.60809 78.4012 8.64703C78.4313 8.68596 78.4887 8.71782 78.5288 8.71782C78.5689 8.71782 78.6304 8.74968 78.6656 8.78862C78.7008 8.82755 78.7564 8.85941 78.7892 8.85941C78.822 8.85941 78.8854 8.89127 78.9301 8.9302C78.9748 8.96914 79.0324 9.001 79.0581 9.001C79.0837 9.001 79.1412 9.03286 79.186 9.07179C79.2307 9.11073 79.2831 9.14259 79.3025 9.14259C79.3219 9.14259 79.4491 9.20425 79.5853 9.27965C80.036 9.52923 80.4394 9.73939 80.5094 9.76108C80.5474 9.77284 80.5959 9.80575 80.6172 9.83421C80.6386 9.86264 80.6904 9.88593 80.7324 9.88593C80.7744 9.88593 80.8334 9.91779 80.8635 9.95672C80.8936 9.99566 80.9512 10.0275 80.9914 10.0275C81.0316 10.0275 81.0892 10.0594 81.1193 10.0983C81.1494 10.1372 81.2068 10.1691 81.2469 10.1691C81.287 10.1691 81.3485 10.201 81.3837 10.2399C81.4189 10.2788 81.4752 10.3107 81.509 10.3107C81.6043 10.3107 81.6715 10.3489 81.6715 10.403C81.6715 10.4342 81.7068 10.4523 81.7677 10.4523C81.8244 10.4523 81.8865 10.4814 81.9187 10.5231C81.9489 10.562 82.0064 10.5939 82.0466 10.5939C82.0869 10.5939 82.1444 10.6257 82.1746 10.6647C82.2047 10.7036 82.2621 10.7355 82.3021 10.7355C82.3422 10.7355 82.4038 10.7673 82.4389 10.8063C82.4741 10.8452 82.5297 10.8771 82.5625 10.8771C82.5954 10.8771 82.6565 10.9068 82.6984 10.9432C82.7404 10.9796 82.8205 11.0205 82.8764 11.034C82.9324 11.0475 82.9953 11.0815 83.0162 11.1094C83.0372 11.1374 83.0794 11.1602 83.1101 11.1602C83.1407 11.1602 83.2024 11.1921 83.2471 11.231C83.2918 11.27 83.3494 11.3018 83.375 11.3018C83.4006 11.3018 83.4582 11.3337 83.5029 11.3726C83.5476 11.4115 83.5994 11.4434 83.6179 11.4434C83.6363 11.4434 83.7773 11.5151 83.9311 11.6027C84.0849 11.6903 84.2275 11.762 84.2479 11.762C84.2683 11.762 84.3216 11.7938 84.3663 11.8328C84.411 11.8717 84.4779 11.9036 84.5149 11.9036C84.5518 11.9036 84.6067 11.9354 84.6368 11.9744C84.667 12.0133 84.7245 12.0452 84.7647 12.0452C84.805 12.0452 84.8625 12.077 84.8927 12.116C84.9228 12.1549 84.9802 12.1867 85.0202 12.1867C85.0603 12.1867 85.1219 12.2186 85.157 12.2575C85.1922 12.2965 85.2571 12.3283 85.3013 12.3283C85.3454 12.3283 85.4061 12.3602 85.4363 12.3991C85.4664 12.4381 85.524 12.4699 85.5642 12.4699C85.6044 12.4699 85.662 12.5018 85.6921 12.5407C85.7222 12.5797 85.7796 12.6115 85.8197 12.6115C85.8597 12.6115 85.9213 12.6434 85.9565 12.6823C85.9917 12.7212 86.0473 12.7531 86.0801 12.7531C86.1129 12.7531 86.1763 12.785 86.221 12.8239C86.2657 12.8628 86.3326 12.8947 86.3696 12.8947C86.4065 12.8947 86.4614 12.9265 86.4915 12.9655C86.5217 13.0044 86.5771 13.0363 86.6148 13.0363C86.6525 13.0363 86.7199 13.0681 86.7646 13.1071C86.8094 13.146 86.8669 13.1779 86.8926 13.1779C86.9182 13.1779 86.9757 13.2097 87.0205 13.2487C87.0652 13.2876 87.1211 13.3202 87.1447 13.3212C87.1683 13.3222 87.3747 13.4307 87.6033 13.5623C88.0162 13.8001 88.0852 13.8711 87.9974 13.9676C87.9462 14.024 87.5672 14.2398 87.5195 14.2398C87.5008 14.2398 87.4489 14.2716 87.4042 14.3106C87.3595 14.3495 87.3019 14.3814 87.2763 14.3814C87.2506 14.3814 87.1931 14.4132 87.1484 14.4522C87.1036 14.4911 87.0461 14.523 87.0205 14.523C86.9948 14.523 86.9373 14.5548 86.8926 14.5938C86.8478 14.6327 86.7903 14.6645 86.7646 14.6645C86.739 14.6645 86.6814 14.6964 86.6367 14.7353C86.592 14.7743 86.5344 14.8061 86.5088 14.8061C86.4832 14.8061 86.4256 14.838 86.3809 14.8769C86.3362 14.9159 86.2688 14.9477 86.2311 14.9477C86.1934 14.9477 86.1379 14.9796 86.1078 15.0185C86.0777 15.0575 86.0228 15.0893 85.9858 15.0893C85.9488 15.0893 85.882 15.1212 85.8373 15.1601C85.7926 15.199 85.7314 15.2309 85.7012 15.2309C85.6711 15.2309 85.6133 15.2628 85.5727 15.3017C85.5322 15.3406 85.4746 15.3725 85.4448 15.3725C85.415 15.3725 85.3575 15.4044 85.3169 15.4433C85.2764 15.4822 85.2188 15.5141 85.189 15.5141C85.1592 15.5141 85.1017 15.5459 85.0611 15.5849C85.0206 15.6238 84.9688 15.6557 84.946 15.6557C84.9232 15.6557 84.8369 15.6955 84.7543 15.7442C84.6716 15.7928 84.5844 15.8327 84.5607 15.8327C84.5369 15.8327 84.5175 15.8473 84.5175 15.8653C84.5175 15.8833 84.4639 15.9175 84.3985 15.9414C84.333 15.9654 84.26 16.0064 84.2363 16.0327C84.1812 16.0937 84.0866 16.0935 83.9788 16.0321C83.9321 16.0055 83.8168 15.9458 83.7226 15.8993C83.6284 15.8529 83.4286 15.7472 83.2787 15.6645C83.1287 15.5818 82.9884 15.5141 82.9667 15.5141C82.945 15.5141 82.8907 15.4822 82.8459 15.4433C82.8012 15.4044 82.7437 15.3725 82.718 15.3725C82.6924 15.3725 82.6348 15.3406 82.5901 15.3017C82.5454 15.2628 82.4787 15.2309 82.4419 15.2309C82.4051 15.2309 82.3462 15.199 82.311 15.1601C82.2759 15.1212 82.211 15.0893 82.1668 15.0893C82.1227 15.0893 82.0619 15.0575 82.0318 15.0185C82.0017 14.9796 81.9441 14.9477 81.9039 14.9477C81.8637 14.9477 81.8061 14.9159 81.776 14.8769C81.7459 14.838 81.6885 14.8061 81.6484 14.8061C81.6083 14.8061 81.5468 14.7743 81.5116 14.7353C81.4764 14.6964 81.4208 14.6645 81.388 14.6645C81.3552 14.6645 81.2918 14.6327 81.2471 14.5938C81.2023 14.5548 81.1448 14.523 81.1191 14.523C81.0935 14.523 81.036 14.4911 80.9912 14.4522C80.9465 14.4132 80.8798 14.3814 80.843 14.3814C80.8062 14.3814 80.7473 14.3495 80.7122 14.3106C80.677 14.2716 80.6194 14.2398 80.5842 14.2398C80.5491 14.2398 80.4915 14.2079 80.4563 14.169C80.4212 14.1301 80.3656 14.0982 80.3327 14.0982C80.2999 14.0982 80.2388 14.0701 80.1968 14.0357C80.1549 14.0014 80.0435 13.9337 79.9492 13.8853C79.855 13.8369 79.6552 13.7296 79.5053 13.6469C79.3554 13.5642 79.215 13.4964 79.1933 13.4964C79.1716 13.4964 79.1173 13.4646 79.0726 13.4256C79.0279 13.3867 78.9612 13.3549 78.9244 13.3549C78.8876 13.3549 78.8287 13.323 78.7935 13.2841C78.7583 13.2451 78.6934 13.2133 78.6493 13.2133C78.6052 13.2133 78.5444 13.1814 78.5143 13.1425C78.4842 13.1035 78.4266 13.0717 78.3864 13.0717C78.3461 13.0717 78.2886 13.0398 78.2585 13.0009C78.2283 12.9619 78.1708 12.9301 78.1305 12.9301C78.0903 12.9301 78.0328 12.8982 78.0026 12.8593C77.9725 12.8204 77.9151 12.7885 77.875 12.7885C77.835 12.7885 77.7734 12.7566 77.7382 12.7177C77.7031 12.6788 77.6475 12.6469 77.6147 12.6469C77.5818 12.6469 77.5184 12.6151 77.4737 12.5761C77.429 12.5372 77.3714 12.5053 77.3458 12.5053C77.3202 12.5053 77.2626 12.4735 77.2179 12.4345C77.1732 12.3956 77.1065 12.3637 77.0697 12.3637C77.0329 12.3637 76.974 12.3319 76.9388 12.2929C76.9036 12.254 76.848 12.2221 76.8152 12.2221C76.7824 12.2221 76.719 12.1903 76.6743 12.1513C76.6296 12.1124 76.572 12.0806 76.5463 12.0806C76.5207 12.0806 76.4632 12.0487 76.4184 12.0098C76.3737 11.9708 76.3162 11.939 76.2905 11.939C76.2649 11.939 76.2096 11.9093 76.1677 11.8731C76.1257 11.8368 76.0561 11.7949 76.013 11.7799C75.9699 11.7649 75.8289 11.691 75.6997 11.6157C75.5705 11.5404 75.4458 11.4788 75.4227 11.4788C75.3995 11.4788 75.344 11.4469 75.2992 11.408C75.2545 11.3691 75.1878 11.3372 75.151 11.3372C75.1142 11.3372 75.0553 11.3054 75.0202 11.2664C74.985 11.2275 74.9201 11.1956 74.8759 11.1956C74.8318 11.1956 74.771 11.1638 74.7409 11.1248C74.7108 11.0859 74.6532 11.054 74.613 11.054C74.5728 11.054 74.5152 11.0222 74.4851 10.9832C74.455 10.9443 74.3974 10.9124 74.3572 10.9124C74.317 10.9124 74.2594 10.8806 74.2293 10.8417C74.1992 10.8027 74.1418 10.7709 74.1017 10.7709C74.0616 10.7709 74.0001 10.739 73.9649 10.7001C73.9297 10.6611 73.8741 10.6293 73.8413 10.6293C73.8085 10.6293 73.7451 10.5974 73.7003 10.5585C73.6556 10.5195 73.5888 10.4877 73.5518 10.4877C73.5148 10.4877 73.46 10.4558 73.4298 10.4169C73.3997 10.3779 73.3422 10.3461 73.3019 10.3461C73.2617 10.3461 73.2041 10.3142 73.174 10.2753C73.1439 10.2364 73.0863 10.2045 73.0461 10.2045C73.0059 10.2045 72.9483 10.1726 72.9182 10.1337C72.8881 10.0948 72.8326 10.0629 72.7949 10.0629C72.7572 10.0629 72.6898 10.0311 72.6451 9.99212C72.6004 9.95318 72.5428 9.92133 72.5172 9.92133C72.4916 9.92133 72.434 9.88947 72.3893 9.85053C72.3446 9.81159 72.2952 9.77974 72.2796 9.77974C72.2639 9.77974 72.066 9.6762 71.8396 9.54966C71.6132 9.42311 71.4108 9.31957 71.3897 9.31957C71.3686 9.31957 71.3171 9.29016 71.2751 9.25416C71.2331 9.2182 71.1603 9.17837 71.1131 9.16563C71.066 9.15289 71.0059 9.11862 70.9795 9.08942C70.9532 9.06025 70.9018 9.0364 70.8653 9.0364C70.8289 9.0364 70.7703 9.00454 70.7352 8.9656C70.7 8.92666 70.6424 8.89481 70.6072 8.89481C70.5721 8.89481 70.5145 8.86295 70.4793 8.82401C70.4442 8.78508 70.3958 8.75322 70.3717 8.75322C70.3477 8.75322 70.2915 8.72136 70.2468 8.68242C70.2021 8.64349 70.1359 8.61163 70.0997 8.61163C70.032 8.61163 69.8398 8.42976 69.8398 8.36572C69.8398 8.34597 69.8778 8.31921 69.9244 8.30629C69.9709 8.29337 70.0356 8.25327 70.0683 8.21713C70.1009 8.18102 70.1604 8.15147 70.2004 8.15147C70.2405 8.15147 70.2979 8.11961 70.328 8.08067C70.3581 8.04174 70.4157 8.00988 70.4559 8.00988C70.4962 8.00988 70.5537 7.97802 70.5838 7.93908C70.614 7.90015 70.6752 7.86829 70.7199 7.86829C70.7645 7.86829 70.8092 7.845 70.8191 7.81654C70.8289 7.78808 70.8681 7.75516 70.906 7.74341C70.9721 7.72291 71.2966 7.55463 71.8342 7.26193C71.9726 7.18661 72.0999 7.12495 72.117 7.12495C72.1341 7.12495 72.1847 7.09309 72.2294 7.05415C72.2741 7.01522 72.3389 6.98336 72.3733 6.98336C72.4077 6.98336 72.4725 6.9515 72.5172 6.91256C72.5619 6.87363 72.6195 6.84177 72.6451 6.84177C72.6707 6.84177 72.7283 6.80991 72.773 6.77098C72.8177 6.73204 72.8753 6.70018 72.9009 6.70018C72.9266 6.70018 72.9841 6.66832 73.0288 6.62939C73.0736 6.59045 73.137 6.55859 73.1698 6.55859C73.2026 6.55859 73.2582 6.52674 73.2934 6.4878C73.3285 6.44886 73.3901 6.417 73.4302 6.417C73.4702 6.417 73.5276 6.38515 73.5578 6.34621C73.6029 6.28791 73.6521 6.27542 73.837 6.27542C74.0219 6.27542 74.0711 6.28791 74.1162 6.34621ZM68.8351 9.21257C68.8893 9.24676 68.9864 9.29402 69.0509 9.31759C69.1155 9.34116 69.1683 9.37263 69.1683 9.3875C69.1683 9.4024 69.2258 9.43366 69.2962 9.45699C69.3665 9.48031 69.4241 9.51468 69.4241 9.53337C69.4241 9.55206 69.443 9.56735 69.4661 9.56735C69.4892 9.56735 69.635 9.63903 69.7901 9.72664C69.9452 9.81425 70.0919 9.88593 70.1161 9.88593C70.1404 9.88593 70.1848 9.91779 70.2149 9.95672C70.2451 9.99566 70.3003 10.0275 70.3376 10.0275C70.375 10.0275 70.4388 10.0594 70.4793 10.0983C70.5199 10.1372 70.5774 10.1691 70.6072 10.1691C70.6371 10.1691 70.6946 10.201 70.7352 10.2399C70.7757 10.2788 70.8335 10.3107 70.8636 10.3107C70.8938 10.3107 70.955 10.3426 70.9997 10.3815C71.0444 10.4204 71.102 10.4523 71.1276 10.4523C71.1532 10.4523 71.2108 10.4841 71.2555 10.5231C71.3002 10.562 71.3671 10.5939 71.4041 10.5939C71.441 10.5939 71.4959 10.6257 71.526 10.6647C71.5562 10.7036 71.6137 10.7355 71.6539 10.7355C71.6942 10.7355 71.7517 10.7673 71.7818 10.8063C71.812 10.8452 71.8675 10.8771 71.9051 10.8771C71.9428 10.8771 72.0102 10.9089 72.055 10.9478C72.0997 10.9868 72.1515 11.0186 72.1701 11.0186C72.2017 11.0186 72.4506 11.1498 73.0481 11.4814C73.1859 11.5578 73.3168 11.6204 73.339 11.6204C73.3613 11.6204 73.4127 11.6522 73.4533 11.6912C73.4938 11.7301 73.5514 11.762 73.5812 11.762C73.611 11.762 73.6685 11.7938 73.7091 11.8328C73.7496 11.8717 73.8074 11.9036 73.8376 11.9036C73.8677 11.9036 73.9289 11.9354 73.9736 11.9744C74.0183 12.0133 74.0852 12.0452 74.1222 12.0452C74.1591 12.0452 74.214 12.077 74.2441 12.116C74.2742 12.1549 74.3318 12.1867 74.372 12.1867C74.4123 12.1867 74.4698 12.2186 74.4999 12.2575C74.5301 12.2965 74.5855 12.3283 74.6232 12.3283C74.6609 12.3283 74.7283 12.3602 74.7731 12.3991C74.8178 12.4381 74.8753 12.4699 74.901 12.4699C74.9266 12.4699 74.9841 12.5018 75.0289 12.5407C75.0736 12.5797 75.1404 12.6115 75.1774 12.6115C75.2144 12.6115 75.2693 12.6434 75.2994 12.6823C75.3295 12.7212 75.3871 12.7531 75.4273 12.7531C75.4675 12.7531 75.5251 12.785 75.5552 12.8239C75.5853 12.8628 75.6408 12.8947 75.6785 12.8947C75.7162 12.8947 75.7836 12.9265 75.8283 12.9655C75.873 13.0044 75.9306 13.0363 75.9562 13.0363C75.9818 13.0363 76.0394 13.0681 76.0841 13.1071C76.1288 13.146 76.1814 13.1779 76.201 13.1779C76.2369 13.1779 76.3253 13.2235 76.8055 13.4901C76.952 13.5715 77.0901 13.638 77.1124 13.638C77.1346 13.638 77.1861 13.6699 77.2266 13.7088C77.2672 13.7478 77.3247 13.7796 77.3545 13.7796C77.3843 13.7796 77.4419 13.8115 77.4824 13.8504C77.523 13.8894 77.5808 13.9212 77.6109 13.9212C77.641 13.9212 77.7022 13.9531 77.747 13.992C77.7917 14.0309 77.8585 14.0628 77.8955 14.0628C77.9325 14.0628 77.9874 14.0947 78.0175 14.1336C78.0476 14.1725 78.1052 14.2044 78.1454 14.2044C78.1856 14.2044 78.2432 14.2362 78.2733 14.2752C78.3034 14.3141 78.361 14.346 78.4012 14.346C78.4414 14.346 78.499 14.3778 78.5291 14.4168C78.5592 14.4557 78.6147 14.4876 78.6524 14.4876C78.6901 14.4876 78.7575 14.5194 78.8022 14.5584C78.8469 14.5973 78.9138 14.6292 78.9508 14.6292C78.9877 14.6292 79.0426 14.661 79.0727 14.6999C79.1029 14.7389 79.1604 14.7707 79.2006 14.7707C79.2409 14.7707 79.2984 14.8026 79.3286 14.8415C79.3587 14.8805 79.4161 14.9123 79.4561 14.9123C79.4962 14.9123 79.5578 14.9442 79.5929 14.9831C79.6281 15.0221 79.6837 15.0539 79.7165 15.0539C79.7493 15.0539 79.8128 15.0858 79.8575 15.1247C79.9022 15.1637 79.9518 15.1955 79.9677 15.1955C79.9835 15.1955 80.0964 15.2495 80.2184 15.3155C80.5505 15.4951 80.8471 15.6439 80.928 15.6714C80.9676 15.6848 81 15.7107 81 15.7288C81 15.747 81.0194 15.7619 81.0432 15.7619C81.0669 15.7619 81.154 15.8017 81.2367 15.8504C81.3194 15.899 81.4057 15.9388 81.4285 15.9388C81.4512 15.9388 81.503 15.9707 81.5436 16.0096C81.5841 16.0486 81.644 16.0804 81.6767 16.0804C81.7093 16.0804 81.7607 16.1123 81.7908 16.1512C81.821 16.1902 81.8785 16.222 81.9187 16.222C81.959 16.222 82.0165 16.2539 82.0466 16.2928C82.0768 16.3318 82.1343 16.3636 82.1746 16.3636C82.2148 16.3636 82.2723 16.3955 82.3025 16.4344C82.3326 16.4733 82.3879 16.5052 82.4254 16.5052C82.4629 16.5052 82.5324 16.545 82.5798 16.5937C82.6273 16.6424 82.6797 16.6822 82.6964 16.6822C82.7131 16.6822 82.7267 16.7061 82.7267 16.7353C82.7267 16.7645 82.7145 16.7884 82.6994 16.7884C82.6844 16.7884 82.6333 16.8282 82.5859 16.8769C82.5384 16.9255 82.4676 16.9654 82.4284 16.9654C82.3893 16.9654 82.3326 16.9972 82.3025 17.0362C82.2723 17.0751 82.2148 17.107 82.1746 17.107C82.1343 17.107 82.0768 17.1388 82.0466 17.1778C82.0165 17.2167 81.9652 17.2485 81.9325 17.2485C81.8999 17.2485 81.8399 17.2804 81.7994 17.3193C81.7588 17.3583 81.7013 17.3901 81.6715 17.3901C81.6417 17.3901 81.5841 17.422 81.5436 17.4609C81.503 17.4999 81.4455 17.5317 81.4157 17.5317C81.3859 17.5317 81.3283 17.5636 81.2878 17.6025C81.2472 17.6415 81.1954 17.6733 81.1726 17.6733C81.1499 17.6733 81.0636 17.7131 80.9809 17.7618C80.8982 17.8105 80.8111 17.8503 80.7873 17.8503C80.7636 17.8503 80.7441 17.8656 80.7441 17.8843C80.7441 17.903 80.6866 17.9373 80.6162 17.9607C80.5459 17.984 80.4883 18.0154 80.4883 18.0305C80.4883 18.0456 80.4559 18.0688 80.4164 18.0822C80.3768 18.0956 80.2682 18.146 80.175 18.1942C79.9977 18.2859 79.8932 18.2837 79.8053 18.1865C79.779 18.1573 79.7359 18.1335 79.7095 18.1335C79.665 18.1335 79.217 17.9045 78.9471 17.7437C78.882 17.705 78.8087 17.6733 78.7841 17.6733C78.7595 17.6733 78.7061 17.6415 78.6656 17.6025C78.625 17.5636 78.5579 17.5317 78.5165 17.5317C78.475 17.5317 78.4165 17.4999 78.3864 17.4609C78.3562 17.422 78.2987 17.3901 78.2585 17.3901C78.2182 17.3901 78.1607 17.3583 78.1305 17.3193C78.1004 17.2804 78.043 17.2485 78.003 17.2485C77.9629 17.2485 77.9013 17.2167 77.8662 17.1778C77.831 17.1388 77.7734 17.107 77.7382 17.107C77.7031 17.107 77.6455 17.0751 77.6103 17.0362C77.5752 16.9972 77.5103 16.9654 77.4661 16.9654C77.422 16.9654 77.3612 16.9335 77.3311 16.8946C77.301 16.8556 77.2434 16.8238 77.2032 16.8238C77.163 16.8238 77.1054 16.7919 77.0753 16.753C77.0452 16.714 76.9878 16.6822 76.9477 16.6822C76.9076 16.6822 76.8461 16.6503 76.8109 16.6114C76.7757 16.5725 76.7201 16.5406 76.6873 16.5406C76.6545 16.5406 76.5911 16.5087 76.5463 16.4698C76.5016 16.4309 76.4441 16.399 76.4184 16.399C76.3928 16.399 76.3353 16.3672 76.2905 16.3282C76.2458 16.2893 76.1883 16.2574 76.1626 16.2574C76.137 16.2574 76.0794 16.2256 76.0347 16.1866C75.99 16.1477 75.9382 16.1158 75.9196 16.1158C75.8883 16.1158 75.4493 15.8856 75.1737 15.7247C75.1087 15.6867 75.0351 15.6557 75.0101 15.6557C74.9852 15.6557 74.9283 15.6238 74.8835 15.5849C74.8388 15.5459 74.772 15.5141 74.735 15.5141C74.698 15.5141 74.6431 15.4822 74.613 15.4433C74.5829 15.4044 74.5253 15.3725 74.4851 15.3725C74.4449 15.3725 74.3873 15.3406 74.3572 15.3017C74.3271 15.2628 74.2695 15.2309 74.2293 15.2309C74.1891 15.2309 74.1315 15.199 74.1014 15.1601C74.0712 15.1212 74.0139 15.0893 73.9738 15.0893C73.9337 15.0893 73.8722 15.0575 73.837 15.0185C73.8018 14.9796 73.7369 14.9477 73.6928 14.9477C73.6486 14.9477 73.5879 14.9159 73.5578 14.8769C73.5276 14.838 73.4701 14.8061 73.4298 14.8061C73.3896 14.8061 73.3321 14.7743 73.3019 14.7353C73.2718 14.6964 73.2143 14.6645 73.174 14.6645C73.1338 14.6645 73.0762 14.6327 73.0461 14.5938C73.016 14.5548 72.9605 14.523 72.9228 14.523C72.8851 14.523 72.8177 14.4911 72.773 14.4522C72.7283 14.4132 72.6707 14.3814 72.6451 14.3814C72.6195 14.3814 72.5619 14.3495 72.5172 14.3106C72.4725 14.2716 72.4149 14.2398 72.3893 14.2398C72.3636 14.2398 72.3061 14.2079 72.2614 14.169C72.2166 14.1301 72.1627 14.0982 72.1415 14.0982C72.1203 14.0982 72.0506 14.068 71.9866 14.0312C71.7515 13.8958 71.2608 13.6421 71.1937 13.6213C71.1557 13.6095 71.1072 13.5766 71.0859 13.5482C71.0646 13.5197 71.0128 13.4964 70.9708 13.4964C70.9288 13.4964 70.8698 13.4646 70.8397 13.4256C70.8095 13.3867 70.752 13.3549 70.7118 13.3549C70.6715 13.3549 70.614 13.323 70.5838 13.2841C70.5537 13.2451 70.4962 13.2133 70.4559 13.2133C70.4157 13.2133 70.3581 13.1814 70.328 13.1425C70.2979 13.1035 70.2405 13.0717 70.2004 13.0717C70.1604 13.0717 70.0988 13.0398 70.0636 13.0009C70.0285 12.9619 69.9636 12.9301 69.9194 12.9301C69.8753 12.9301 69.8145 12.8982 69.7844 12.8593C69.7543 12.8204 69.6967 12.7885 69.6565 12.7885C69.6163 12.7885 69.5587 12.7566 69.5286 12.7177C69.4985 12.6788 69.4409 12.6469 69.4007 12.6469C69.3604 12.6469 69.3029 12.6151 69.2728 12.5761C69.2426 12.5372 69.1852 12.5053 69.1452 12.5053C69.1051 12.5053 69.0435 12.4735 69.0084 12.4345C68.9732 12.3956 68.9176 12.3637 68.8848 12.3637C68.852 12.3637 68.7886 12.3319 68.7438 12.2929C68.6991 12.254 68.6416 12.2221 68.6159 12.2221C68.5903 12.2221 68.535 12.1927 68.4931 12.1567C68.4511 12.1208 68.3782 12.0809 68.3311 12.0682C68.284 12.0555 68.2238 12.0212 68.1975 11.992C68.1711 11.9628 68.1346 11.939 68.1164 11.939C68.0857 11.939 67.6444 11.7074 67.3712 11.5479C67.3061 11.5099 67.2325 11.4788 67.2076 11.4788C67.1827 11.4788 67.1257 11.4469 67.081 11.408C67.0363 11.3691 66.9787 11.3372 66.9531 11.3372C66.9275 11.3372 66.8699 11.3054 66.8252 11.2664C66.7805 11.2275 66.7136 11.1956 66.6766 11.1956C66.6397 11.1956 66.5848 11.1638 66.5547 11.1248C66.5245 11.0859 66.467 11.054 66.4268 11.054C66.3865 11.054 66.329 11.0222 66.2988 10.9832C66.2687 10.9443 66.2119 10.9124 66.1725 10.9124C66.1331 10.9124 66.0752 10.8826 66.0437 10.846C66.0122 10.8095 65.9541 10.7686 65.9145 10.7552C65.8583 10.736 65.8426 10.7043 65.8426 10.6099C65.8426 10.5074 65.856 10.4854 65.9305 10.4653C65.9789 10.4522 66.0528 10.4121 66.0947 10.3761C66.1367 10.3401 66.192 10.3107 66.2176 10.3107C66.2432 10.3107 66.3008 10.2788 66.3455 10.2399C66.3902 10.201 66.4478 10.1691 66.4734 10.1691C66.4991 10.1691 66.5566 10.1372 66.6013 10.0983C66.6461 10.0594 66.7036 10.0275 66.7292 10.0275C66.7549 10.0275 66.8124 9.99566 66.8571 9.95672C66.9019 9.91779 66.9575 9.88593 66.9807 9.88593C67.004 9.88593 67.1458 9.81425 67.2958 9.72664C67.4459 9.63903 67.5846 9.56735 67.604 9.56735C67.6234 9.56735 67.6758 9.5355 67.7205 9.49656C67.7653 9.45762 67.8228 9.42577 67.8484 9.42577C67.8741 9.42577 67.9317 9.39391 67.9764 9.35497C68.0211 9.31603 68.0798 9.28418 68.1068 9.28418C68.1338 9.28418 68.1823 9.25777 68.2145 9.22549C68.3383 9.10146 68.6487 9.09498 68.8351 9.21257ZM64.7444 11.408C64.856 11.4664 64.9617 11.5142 64.9793 11.5142C64.9968 11.5142 65.0112 11.5295 65.0112 11.5482C65.0112 11.5669 65.0687 11.5994 65.1391 11.6204C65.2094 11.6413 65.267 11.6732 65.267 11.6912C65.267 11.7092 65.3246 11.741 65.3949 11.762C65.4653 11.7829 65.5228 11.8148 65.5228 11.8328C65.5228 11.8508 65.5804 11.8826 65.6507 11.9036C65.7211 11.9245 65.7786 11.9564 65.7786 11.9744C65.7786 11.9923 65.8345 12.0237 65.9028 12.0441C65.9711 12.0644 66.0449 12.1048 66.0666 12.1339C66.0884 12.163 66.1406 12.1867 66.1826 12.1867C66.2246 12.1867 66.2836 12.2186 66.3137 12.2575C66.3438 12.2965 66.399 12.3283 66.4364 12.3283C66.4738 12.3283 66.5375 12.3602 66.5781 12.3991C66.6186 12.4381 66.6764 12.4699 66.7066 12.4699C66.7367 12.4699 66.7979 12.5018 66.8426 12.5407C66.8873 12.5797 66.9449 12.6115 66.9705 12.6115C66.9962 12.6115 67.0537 12.6434 67.0984 12.6823C67.1432 12.7212 67.2007 12.7531 67.2264 12.7531C67.252 12.7531 67.3095 12.785 67.3543 12.8239C67.399 12.8628 67.4565 12.8947 67.4822 12.8947C67.5078 12.8947 67.5654 12.9265 67.6101 12.9655C67.6548 13.0044 67.7195 13.0363 67.754 13.0363C67.7884 13.0363 67.8532 13.0681 67.8979 13.1071C67.9426 13.146 68.0002 13.1779 68.0258 13.1779C68.0514 13.1779 68.109 13.2097 68.1537 13.2487C68.1984 13.2876 68.2502 13.3195 68.2688 13.3195C68.2874 13.3195 68.4291 13.3896 68.5836 13.4754C68.7381 13.5611 68.8956 13.6414 68.9335 13.6537C68.9715 13.6661 69.02 13.6994 69.0414 13.7279C69.0627 13.7563 69.1145 13.7796 69.1565 13.7796C69.1985 13.7796 69.2575 13.8115 69.2876 13.8504C69.3177 13.8894 69.3753 13.9212 69.4155 13.9212C69.4557 13.9212 69.5133 13.9531 69.5434 13.992C69.5735 14.0309 69.6311 14.0628 69.6713 14.0628C69.7116 14.0628 69.7691 14.0947 69.7992 14.1336C69.8294 14.1725 69.8868 14.2044 69.9268 14.2044C69.9669 14.2044 70.0285 14.2362 70.0636 14.2752C70.0988 14.3141 70.1637 14.346 70.2079 14.346C70.252 14.346 70.3127 14.3778 70.3429 14.4168C70.373 14.4557 70.4305 14.4876 70.4708 14.4876C70.511 14.4876 70.5686 14.5194 70.5987 14.5584C70.6288 14.5973 70.6864 14.6292 70.7266 14.6292C70.7668 14.6292 70.8244 14.661 70.8545 14.6999C70.8846 14.7389 70.942 14.7707 70.9821 14.7707C71.0222 14.7707 71.0837 14.8026 71.1189 14.8415C71.1541 14.8805 71.2097 14.9123 71.2425 14.9123C71.2753 14.9123 71.3387 14.9442 71.3834 14.9831C71.4281 15.0221 71.4949 15.0539 71.5317 15.0539C71.5684 15.0539 71.6273 15.0858 71.6625 15.1247C71.6977 15.1637 71.7533 15.1955 71.7861 15.1955C71.8189 15.1955 71.8823 15.2274 71.9271 15.2663C71.9718 15.3052 72.0293 15.3371 72.055 15.3371C72.0806 15.3371 72.1381 15.369 72.1829 15.4079C72.2276 15.4468 72.2802 15.4787 72.2997 15.4787C72.3338 15.4787 72.5383 15.5833 72.7881 15.7285C72.8531 15.7663 72.9265 15.7973 72.951 15.7973C72.9756 15.7973 73.029 15.8291 73.0695 15.8681C73.1101 15.907 73.1676 15.9388 73.1974 15.9388C73.2272 15.9388 73.2848 15.9707 73.3253 16.0096C73.3659 16.0486 73.4234 16.0804 73.4533 16.0804C73.4831 16.0804 73.5406 16.1123 73.5812 16.1512C73.6217 16.1902 73.6795 16.222 73.7096 16.222C73.7398 16.222 73.801 16.2539 73.8457 16.2928C73.8904 16.3318 73.9573 16.3636 73.9942 16.3636C74.0312 16.3636 74.0861 16.3955 74.1162 16.4344C74.1463 16.4733 74.2039 16.5052 74.2441 16.5052C74.2844 16.5052 74.3419 16.5371 74.372 16.576C74.4022 16.6149 74.4576 16.6468 74.4953 16.6468C74.533 16.6468 74.6004 16.6787 74.6452 16.7176C74.6899 16.7565 74.7474 16.7884 74.7731 16.7884C74.7987 16.7884 74.8562 16.8202 74.901 16.8592C74.9457 16.8981 75.0125 16.93 75.0495 16.93C75.0865 16.93 75.1414 16.9618 75.1715 17.0008C75.2016 17.0397 75.2571 17.0716 75.2947 17.0716C75.3324 17.0716 75.3999 17.1034 75.4446 17.1424C75.4893 17.1813 75.5469 17.2131 75.5725 17.2131C75.5981 17.2131 75.6557 17.245 75.7004 17.2839C75.7451 17.3229 75.797 17.3547 75.8155 17.3547C75.8468 17.3547 76.2858 17.5849 76.5614 17.7458C76.6265 17.7838 76.6998 17.8149 76.7244 17.8149C76.749 17.8149 76.8023 17.8468 76.8429 17.8857C76.8834 17.9246 76.941 17.9565 76.9708 17.9565C77.0006 17.9565 77.0581 17.9883 77.0987 18.0273C77.1392 18.0662 77.1971 18.0981 77.2272 18.0981C77.2573 18.0981 77.3185 18.1299 77.3632 18.1689C77.4079 18.2078 77.4655 18.2397 77.4912 18.2397C77.5168 18.2397 77.5743 18.2715 77.6191 18.3105C77.6638 18.3494 77.7306 18.3813 77.7676 18.3813C77.8046 18.3813 77.8594 18.4131 77.8896 18.452C77.9197 18.491 77.9772 18.5228 78.0175 18.5228C78.0577 18.5228 78.1153 18.5547 78.1454 18.5936C78.1755 18.6326 78.231 18.6644 78.2687 18.6644C78.3064 18.6644 78.3738 18.6963 78.4185 18.7352C78.4632 18.7742 78.5208 18.806 78.5464 18.806C78.572 18.806 78.6296 18.8379 78.6743 18.8768C78.719 18.9158 78.7766 18.9476 78.8022 18.9476C78.8278 18.9476 78.8854 18.9795 78.9301 19.0184C78.9748 19.0573 79.0324 19.0892 79.0581 19.0892C79.0837 19.0892 79.139 19.1186 79.1809 19.1546C79.2229 19.1906 79.295 19.2302 79.3413 19.2427C79.3915 19.2563 79.4332 19.2977 79.4448 19.3454C79.4554 19.3895 79.4644 20.9016 79.4646 22.7057L79.465 25.9858L79.5458 26.1639C79.5903 26.2618 79.6658 26.3745 79.7137 26.4142C79.7616 26.4539 79.8185 26.5029 79.8401 26.523C79.9248 26.6016 80.0668 26.6031 80.1786 26.5266C80.2388 26.4855 80.3155 26.4518 80.3491 26.4518C80.3827 26.4518 80.4348 26.42 80.4649 26.381C80.495 26.3421 80.5549 26.3102 80.598 26.3102C80.6411 26.3102 80.6852 26.2945 80.6959 26.2753C80.719 26.234 81.166 25.9917 81.2192 25.9917C81.2393 25.9917 81.2558 25.9764 81.2558 25.9577C81.2558 25.939 81.3133 25.9046 81.3837 25.8813C81.454 25.858 81.5116 25.8265 81.5116 25.8114C81.5116 25.7964 81.544 25.7734 81.5835 25.7604C81.6586 25.7357 81.9237 25.6033 82.1235 25.4908C82.1875 25.4547 82.2572 25.4253 82.2784 25.4253C82.2996 25.4253 82.3535 25.3934 82.3982 25.3545C82.443 25.3156 82.5005 25.2837 82.5262 25.2837C82.5518 25.2837 82.6094 25.2518 82.6541 25.2129C82.6988 25.174 82.7662 25.1421 82.8039 25.1421C82.8416 25.1421 82.8971 25.1103 82.9272 25.0713C82.9573 25.0324 83.0149 25.0005 83.0551 25.0005C83.0953 25.0005 83.1529 24.9687 83.183 24.9297C83.2131 24.8908 83.2739 24.8589 83.318 24.8589C83.3622 24.8589 83.4271 24.8271 83.4622 24.7881C83.4974 24.7492 83.559 24.7174 83.599 24.7174C83.6391 24.7174 83.6965 24.6855 83.7266 24.6466C83.7567 24.6076 83.8143 24.5758 83.8545 24.5758C83.8948 24.5758 83.9515 24.5479 83.9806 24.5138C84.0096 24.4797 84.0776 24.4128 84.1316 24.365C84.1855 24.3173 84.2297 24.2486 84.2297 24.2123C84.2297 24.176 84.2477 24.1116 84.2697 24.069C84.3006 24.0093 84.3133 23.2282 84.3256 20.6319C84.3375 18.1323 84.3511 17.2687 84.3786 17.2585C84.399 17.251 84.4484 17.2134 84.4885 17.1749C84.5285 17.1365 84.5982 17.0951 84.6433 17.0829C84.6884 17.0707 84.7597 17.0313 84.8016 16.9954C84.8436 16.9594 84.9047 16.93 84.9375 16.93C84.9703 16.93 85.0259 16.8981 85.0611 16.8592C85.0963 16.8202 85.1552 16.7884 85.192 16.7884C85.2288 16.7884 85.2955 16.7565 85.3402 16.7176C85.3849 16.6787 85.4425 16.6468 85.4681 16.6468C85.4937 16.6468 85.5513 16.6149 85.596 16.576C85.6407 16.5371 85.7006 16.5051 85.729 16.505C85.7574 16.5048 85.8238 16.4731 85.8765 16.4344C85.9293 16.3957 85.9918 16.364 86.0154 16.3639C86.039 16.3637 86.0949 16.3318 86.1396 16.2928C86.1844 16.2539 86.2456 16.222 86.2757 16.222C86.3058 16.222 86.3636 16.1902 86.4042 16.1512C86.4447 16.1123 86.4959 16.0804 86.5179 16.0804C86.5399 16.0804 86.6807 16.0088 86.8307 15.9212C86.9808 15.8335 87.1199 15.7619 87.1399 15.7619C87.1599 15.7619 87.1978 15.738 87.2241 15.7088C87.2505 15.6796 87.3104 15.6451 87.3574 15.6321C87.4044 15.619 87.462 15.5871 87.4853 15.5613C87.5087 15.5354 87.5664 15.504 87.6136 15.4915C87.6607 15.4789 87.725 15.4391 87.7565 15.4029C87.7879 15.3667 87.8432 15.3371 87.8793 15.3371C87.9155 15.3371 87.9816 15.3052 88.0263 15.2663C88.071 15.2274 88.1344 15.1955 88.1672 15.1955C88.2001 15.1955 88.2557 15.1637 88.2908 15.1247C88.326 15.0858 88.3849 15.0539 88.4217 15.0539C88.4585 15.0539 88.5252 15.0221 88.5699 14.9831C88.6503 14.9131 88.7818 14.8922 88.8798 14.9338C88.9258 14.9533 88.9304 15.8049 88.9304 24.2253C88.9304 32.9475 88.9271 33.5038 88.8749 33.6372C88.8341 33.7413 88.7915 33.7892 88.715 33.8172C88.6576 33.8381 88.6106 33.8697 88.6106 33.8873C88.6106 33.9049 88.5716 33.9301 88.524 33.9433C88.4763 33.9566 88.2606 34.0684 88.0446 34.1918C87.8287 34.3152 87.6364 34.4162 87.6174 34.4162C87.5983 34.4162 87.5612 34.44 87.5349 34.4692C87.5085 34.4984 87.4484 34.5327 87.4012 34.5454C87.3541 34.5582 87.2812 34.598 87.2393 34.6339C87.1973 34.6699 87.142 34.6994 87.1164 34.6994C87.0908 34.6994 87.0332 34.7312 86.9885 34.7702C86.9438 34.8091 86.8862 34.8409 86.8606 34.8409C86.8349 34.8409 86.7774 34.8728 86.7327 34.9117C86.6879 34.9507 86.6245 34.9825 86.5917 34.9825C86.5589 34.9825 86.5033 35.0144 86.4681 35.0533C86.4329 35.0923 86.3714 35.1241 86.3313 35.1241C86.2913 35.1241 86.2339 35.156 86.2037 35.1949C86.1736 35.2339 86.1161 35.2657 86.0758 35.2657C86.0356 35.2657 85.978 35.2976 85.9479 35.3365C85.9178 35.3754 85.857 35.4073 85.8129 35.4073C85.7687 35.4073 85.7039 35.4392 85.6687 35.4781C85.6335 35.517 85.5746 35.5489 85.5378 35.5489C85.501 35.5489 85.4343 35.5807 85.3896 35.6197C85.3449 35.6586 85.2801 35.6905 85.2457 35.6905C85.2113 35.6905 85.1465 35.7223 85.1018 35.7613C85.0571 35.8002 84.9959 35.8321 84.9657 35.8321C84.9356 35.8321 84.8778 35.8639 84.8373 35.9029C84.7967 35.9418 84.7449 35.9737 84.7221 35.9737C84.6994 35.9737 84.6131 36.0135 84.5304 36.0622C84.4477 36.1108 84.3606 36.1506 84.3368 36.1506C84.3131 36.1506 84.2936 36.1659 84.2936 36.1846C84.2936 36.2033 84.2361 36.2377 84.1657 36.261C84.0954 36.2843 84.0378 36.3156 84.0378 36.3305C84.0378 36.3454 83.9839 36.377 83.9179 36.4008C83.852 36.4247 83.7637 36.4736 83.7217 36.5097C83.6798 36.5459 83.6245 36.5754 83.5989 36.5754C83.5732 36.5754 83.5157 36.6073 83.471 36.6462C83.4262 36.6851 83.3687 36.717 83.343 36.717C83.3174 36.717 83.2598 36.7489 83.2151 36.7878C83.1704 36.8267 83.107 36.8586 83.0742 36.8586C83.0414 36.8586 82.9858 36.8904 82.9506 36.9294C82.9154 36.9683 82.8539 37.0002 82.8138 37.0002C82.7737 37.0002 82.7163 37.032 82.6862 37.071C82.6561 37.1099 82.5985 37.1418 82.5583 37.1418C82.5181 37.1418 82.4605 37.1736 82.4304 37.2126C82.4003 37.2515 82.3395 37.2834 82.2954 37.2834C82.2512 37.2834 82.1863 37.3152 82.1512 37.3541C82.116 37.3931 82.0584 37.4249 82.0232 37.4249C81.9881 37.4249 81.9305 37.4568 81.8953 37.4957C81.8602 37.5347 81.8013 37.5665 81.7645 37.5665C81.7277 37.5665 81.661 37.5984 81.6163 37.6373C81.5715 37.6763 81.5068 37.7081 81.4724 37.7081C81.4379 37.7081 81.3732 37.74 81.3285 37.7789C81.2837 37.8179 81.2225 37.8497 81.1924 37.8497C81.1623 37.8497 81.1045 37.8816 81.0639 37.9205C81.0234 37.9594 80.9722 37.9913 80.9503 37.9913C80.9283 37.9913 80.7282 38.0948 80.5055 38.2214C80.2828 38.3479 80.0861 38.4515 80.0684 38.4515C80.0506 38.4515 80.0145 38.4753 79.9882 38.5045C79.9618 38.5337 79.9017 38.568 79.8545 38.5807C79.8074 38.5934 79.7345 38.6333 79.6926 38.6692C79.6506 38.7052 79.5953 38.7346 79.5697 38.7346C79.544 38.7346 79.4865 38.7665 79.4418 38.8054C79.397 38.8444 79.3395 38.8762 79.3139 38.8762C79.2882 38.8762 79.2307 38.9081 79.186 38.947C79.1412 38.986 79.0778 39.0178 79.045 39.0178C79.0122 39.0178 78.9566 39.0497 78.9214 39.0886C78.8862 39.1275 78.8247 39.1594 78.7846 39.1594C78.7445 39.1594 78.6872 39.1913 78.657 39.2302C78.6269 39.2691 78.5693 39.301 78.5291 39.301C78.4889 39.301 78.4313 39.3329 78.4012 39.3718C78.3711 39.4107 78.3103 39.4426 78.2662 39.4426C78.222 39.4426 78.1572 39.4744 78.122 39.5134C78.0868 39.5523 78.0252 39.5842 77.9852 39.5842C77.9451 39.5842 77.8877 39.616 77.8576 39.655C77.8275 39.6939 77.7726 39.7258 77.7356 39.7258C77.6986 39.7258 77.6318 39.7576 77.5871 39.7966C77.5424 39.8355 77.4854 39.8673 77.4605 39.8673C77.4218 39.8673 77.3105 39.9234 77.0987 40.0496C77.0723 40.0653 76.9428 40.136 76.8109 40.2066C76.679 40.2772 76.4015 40.4289 76.1943 40.5436C75.9871 40.6584 75.8023 40.7523 75.7836 40.7523C75.765 40.7523 75.7131 40.7841 75.6684 40.8231C75.6237 40.862 75.5661 40.8939 75.5405 40.8939C75.5149 40.8939 75.4573 40.9257 75.4126 40.9647C75.3679 41.0036 75.3103 41.0355 75.2847 41.0355C75.2591 41.0355 75.2015 41.0673 75.1568 41.1063C75.1121 41.1452 75.0545 41.177 75.0289 41.177C75.0032 41.177 74.9457 41.2089 74.901 41.2478C74.8562 41.2868 74.7888 41.3186 74.7511 41.3186C74.7135 41.3186 74.658 41.3505 74.6279 41.3894C74.5726 41.4609 74.4921 41.4782 74.3992 41.4387C74.3533 41.4192 74.3487 40.5567 74.3498 32.0142L74.351 22.6112L74.4898 22.5139C74.5662 22.4603 74.6437 22.4165 74.662 22.4165C74.6802 22.4165 74.8079 22.354 74.9456 22.2776C75.5407 21.9473 75.7919 21.8148 75.823 21.8148C75.8412 21.8148 75.8777 21.7909 75.904 21.7618C75.9304 21.7326 75.9904 21.698 76.0374 21.685C76.0843 21.6719 76.1419 21.6401 76.1653 21.6142C76.1886 21.5883 76.2464 21.5569 76.2935 21.5444C76.3406 21.5319 76.4049 21.492 76.4364 21.4558C76.4679 21.4196 76.5232 21.39 76.5593 21.39C76.5954 21.39 76.6615 21.3582 76.7062 21.3192C76.751 21.2803 76.8144 21.2484 76.8472 21.2484C76.88 21.2484 76.9356 21.2166 76.9708 21.1776C77.006 21.1387 77.0635 21.1068 77.0987 21.1068C77.1339 21.1068 77.1914 21.075 77.2266 21.036C77.2618 20.9971 77.3233 20.9652 77.3634 20.9652C77.4035 20.9652 77.4609 20.9334 77.491 20.8945C77.5211 20.8555 77.5787 20.8237 77.6189 20.8237C77.6591 20.8237 77.7167 20.7918 77.7468 20.7529C77.7769 20.7139 77.8281 20.6821 77.8605 20.6821C77.8958 20.6821 77.9598 20.6129 78.0207 20.509C78.1432 20.2997 78.1582 20.085 78.058 19.9741C78.0228 19.9352 77.9941 19.8924 77.9941 19.8791C77.9941 19.8657 77.9628 19.8179 77.9245 19.7729C77.8622 19.6994 77.8262 19.691 77.5777 19.691C77.3462 19.691 77.2881 19.7027 77.2266 19.7617C77.1861 19.8007 77.1285 19.8325 77.0987 19.8325C77.0689 19.8325 77.0113 19.8644 76.9708 19.9033C76.9302 19.9423 76.8788 19.9741 76.8566 19.9741C76.8343 19.9741 76.7034 20.0367 76.5657 20.1131C75.9682 20.4447 75.7193 20.5759 75.6876 20.5759C75.669 20.5759 75.6172 20.6077 75.5725 20.6467C75.5278 20.6856 75.4702 20.7175 75.4446 20.7175C75.4189 20.7175 75.3614 20.7493 75.3167 20.7883C75.2719 20.8272 75.2144 20.8591 75.1888 20.8591C75.1631 20.8591 75.1056 20.8909 75.0609 20.9299C75.0161 20.9688 74.9586 21.0006 74.9329 21.0006C74.9073 21.0006 74.8497 21.0325 74.805 21.0714C74.7603 21.1104 74.6929 21.1422 74.6552 21.1422C74.6175 21.1422 74.562 21.1741 74.5319 21.213C74.5018 21.252 74.4469 21.2838 74.41 21.2838C74.373 21.2838 74.3061 21.3157 74.2614 21.3546C74.2167 21.3936 74.1555 21.4254 74.1254 21.4254C74.0952 21.4254 74.0374 21.4573 73.9969 21.4962C73.9563 21.5351 73.8844 21.567 73.837 21.567C73.7896 21.567 73.7176 21.5351 73.6771 21.4962C73.6365 21.4573 73.5787 21.4254 73.5486 21.4254C73.5185 21.4254 73.4573 21.3936 73.4125 21.3546C73.3678 21.3157 73.3033 21.2838 73.2692 21.2838C73.2351 21.2838 73.174 21.252 73.1335 21.213C73.0929 21.1741 73.033 21.1422 73.0004 21.1422C72.9677 21.1422 72.9163 21.1104 72.8862 21.0714C72.8561 21.0325 72.8006 21.0006 72.763 21.0006C72.7253 21.0006 72.6559 20.9671 72.6087 20.926C72.5374 20.8639 72.4752 20.8506 72.2375 20.8464C71.9527 20.8414 71.9517 20.8417 71.8552 20.9586C71.802 21.0231 71.7584 21.1069 71.7584 21.1449C71.7584 21.1829 71.7425 21.2423 71.7229 21.2769C71.6961 21.3246 71.6998 21.3802 71.7384 21.5059C71.8068 21.7291 71.969 21.8953 72.2141 21.9934C72.2801 22.0198 72.334 22.0541 72.334 22.0697C72.334 22.0852 72.352 22.0979 72.374 22.0978C72.396 22.0977 72.6191 22.2119 72.8697 22.3517L73.3253 22.6057V32.0115C73.3253 40.5556 73.3207 41.4192 73.2748 41.4387C73.1818 41.4782 73.1014 41.4609 73.0461 41.3894C73.016 41.3505 72.9584 41.3186 72.9182 41.3186C72.878 41.3186 72.8204 41.2868 72.7903 41.2478C72.7602 41.2089 72.7028 41.177 72.6627 41.177C72.6226 41.177 72.5611 41.1452 72.5259 41.1063C72.4907 41.0673 72.4351 41.0355 72.4023 41.0355C72.3695 41.0355 72.3061 41.0036 72.2614 40.9647C72.2166 40.9257 72.1591 40.8939 72.1334 40.8939C72.1078 40.8939 72.0503 40.862 72.0055 40.8231C71.9608 40.7841 71.9033 40.7523 71.8776 40.7523C71.852 40.7523 71.7967 40.7229 71.7548 40.6869C71.7128 40.6509 71.6399 40.6111 71.5928 40.5983C71.5457 40.5856 71.4855 40.5513 71.4592 40.5221C71.4328 40.493 71.3942 40.4691 71.3734 40.4691C71.3525 40.4691 71.2831 40.4389 71.2192 40.4021C70.984 40.2667 70.4933 40.013 70.4263 39.9922C70.3883 39.9804 70.3398 39.9475 70.3184 39.9191C70.2971 39.8906 70.2546 39.8673 70.2239 39.8673C70.1933 39.8673 70.1316 39.8355 70.0869 39.7966C70.0422 39.7576 69.9753 39.7258 69.9383 39.7258C69.9014 39.7258 69.8465 39.6939 69.8164 39.655C69.7863 39.616 69.7289 39.5842 69.6888 39.5842C69.6487 39.5842 69.5872 39.5523 69.552 39.5134C69.5168 39.4744 69.4519 39.4426 69.4078 39.4426C69.3636 39.4426 69.3029 39.4107 69.2728 39.3718C69.2426 39.3329 69.1851 39.301 69.1449 39.301C69.1046 39.301 69.0471 39.2691 69.0169 39.2302C68.9868 39.1913 68.9294 39.1594 68.8894 39.1594C68.8493 39.1594 68.7877 39.1275 68.7526 39.0886C68.7174 39.0497 68.6598 39.0178 68.6246 39.0178C68.5895 39.0178 68.5319 38.986 68.4967 38.947C68.4616 38.9081 68.4059 38.8762 68.3731 38.8762C68.3403 38.8762 68.2769 38.8444 68.2322 38.8054C68.1875 38.7665 68.1299 38.7346 68.1043 38.7346C68.0787 38.7346 68.0234 38.7052 67.9814 38.6692C67.9395 38.6333 67.8666 38.5934 67.8194 38.5807C67.7723 38.568 67.7122 38.5337 67.6858 38.5045C67.6595 38.4753 67.6223 38.4515 67.6033 38.4515C67.5843 38.4515 67.4574 38.3896 67.3212 38.314C66.9238 38.0932 66.4718 37.8585 66.3971 37.8341C66.3591 37.8217 66.3106 37.7883 66.2893 37.7598C66.2679 37.7314 66.2254 37.7081 66.1947 37.7081C66.1641 37.7081 66.1024 37.6763 66.0577 37.6373C66.013 37.5984 65.9463 37.5665 65.9095 37.5665C65.8727 37.5665 65.8138 37.5347 65.7786 37.4957C65.7435 37.4568 65.6871 37.4249 65.6533 37.4249C65.558 37.4249 65.4908 37.3868 65.4908 37.3327C65.4908 37.3014 65.4555 37.2834 65.3946 37.2834C65.3379 37.2834 65.2758 37.2543 65.2436 37.2126C65.2135 37.1736 65.1559 37.1418 65.1157 37.1418C65.0755 37.1418 65.0179 37.1099 64.9878 37.071C64.9576 37.032 64.9002 37.0002 64.8602 37.0002C64.8201 37.0002 64.7586 36.9683 64.7234 36.9294C64.6882 36.8904 64.6326 36.8586 64.5998 36.8586C64.567 36.8586 64.5036 36.8267 64.4588 36.7878C64.4141 36.7489 64.3566 36.717 64.3309 36.717C64.3053 36.717 64.25 36.6876 64.2081 36.6516C64.1661 36.6156 64.0932 36.5758 64.0461 36.5631C63.999 36.5503 63.9388 36.5161 63.9125 36.4868C63.8861 36.4577 63.849 36.4338 63.83 36.4338C63.811 36.4338 63.684 36.3719 63.5479 36.2963C63.0056 35.9951 62.6845 35.8321 62.6336 35.8321C62.6043 35.8321 62.5556 35.8002 62.5255 35.7613C62.4954 35.7223 62.438 35.6905 62.3979 35.6905C62.3578 35.6905 62.2963 35.6586 62.2611 35.6197C62.2259 35.5807 62.1684 35.5489 62.1332 35.5489C62.098 35.5489 62.0405 35.517 62.0053 35.4781C61.9701 35.4392 61.9052 35.4073 61.8611 35.4073C61.8169 35.4073 61.7562 35.3754 61.7261 35.3365C61.6959 35.2976 61.6384 35.2657 61.5981 35.2657C61.5579 35.2657 61.5004 35.2339 61.4702 35.1949C61.4401 35.156 61.3827 35.1241 61.3426 35.1241C61.3026 35.1241 61.241 35.0923 61.2058 35.0533C61.1707 35.0144 61.1151 34.9825 61.0823 34.9825C61.0494 34.9825 60.986 34.9507 60.9413 34.9117C60.8966 34.8728 60.839 34.8409 60.8134 34.8409C60.7878 34.8409 60.7325 34.8115 60.6905 34.7755C60.6486 34.7396 60.5757 34.6997 60.5286 34.687C60.4814 34.6743 60.4213 34.64 60.3949 34.6108C60.3686 34.5816 60.3321 34.5578 60.3139 34.5578C60.2831 34.5578 59.8419 34.3262 59.5687 34.1667C59.5036 34.1287 59.43 34.0976 59.4051 34.0976C59.3802 34.0976 59.3232 34.0658 59.2785 34.0268C59.2338 33.9879 59.1797 33.956 59.1584 33.956C59.08 33.956 58.8471 33.7582 58.8043 33.6551C58.7394 33.4994 58.7373 14.958 58.8022 14.9304C58.9028 14.8876 59.0659 14.9148 59.1187 14.9831C59.1489 15.0221 59.2063 15.0539 59.2463 15.0539C59.2864 15.0539 59.3479 15.0858 59.3831 15.1247C59.4183 15.1637 59.4739 15.1955 59.5067 15.1955C59.5395 15.1955 59.6029 15.2274 59.6477 15.2663C59.6924 15.3052 59.7499 15.3371 59.7756 15.3371C59.8012 15.3371 59.8565 15.3665 59.8984 15.4025C59.9404 15.4385 60.0133 15.4783 60.0604 15.491C60.1075 15.5038 60.1677 15.538 60.194 15.5672C60.2204 15.5964 60.2569 15.6203 60.2751 15.6203C60.2934 15.6203 60.4347 15.6904 60.5892 15.7762C60.7437 15.8619 60.9025 15.9426 60.942 15.9556C60.9816 15.9685 61.014 15.9939 61.014 16.012C61.014 16.0302 61.0321 16.045 61.0542 16.045C61.0763 16.045 61.2238 16.1165 61.3819 16.2039C61.5401 16.2913 61.6856 16.363 61.7052 16.3632C61.7248 16.3634 61.7774 16.3955 61.8221 16.4344C61.8669 16.4733 61.9336 16.5052 61.9704 16.5052C62.0071 16.5052 62.066 16.5371 62.1012 16.576C62.1364 16.6149 62.192 16.6468 62.2248 16.6468C62.2576 16.6468 62.321 16.6787 62.3658 16.7176C62.4105 16.7565 62.4773 16.7884 62.5143 16.7884C62.5513 16.7884 62.6061 16.8202 62.6363 16.8592C62.6664 16.8981 62.7238 16.93 62.7639 16.93C62.8039 16.93 62.8655 16.9618 62.9007 17.0008C62.9358 17.0397 62.9934 17.0716 63.0286 17.0716C63.0637 17.0716 63.1213 17.1034 63.1565 17.1424C63.1917 17.1813 63.2473 17.2131 63.2801 17.2131C63.3129 17.2131 63.3763 17.245 63.421 17.2839C63.4657 17.3229 63.5319 17.3547 63.568 17.3547C63.6041 17.3547 63.6594 17.3844 63.6909 17.4205C63.7223 17.4568 63.7866 17.4966 63.8338 17.5091C63.8809 17.5216 63.941 17.5557 63.9674 17.5849C63.9937 17.6141 64.0302 17.6379 64.0485 17.6379C64.0667 17.6379 64.208 17.7081 64.3625 17.7938C64.517 17.8796 64.6758 17.9603 64.7154 17.9732C64.7549 17.9861 64.7873 18.0115 64.7873 18.0297C64.7873 18.0478 64.8062 18.0627 64.8293 18.0627C64.8524 18.0627 64.9982 18.1344 65.1533 18.222C65.3084 18.3096 65.4531 18.3813 65.4748 18.3813C65.4964 18.3813 65.5508 18.4131 65.5955 18.452C65.6402 18.491 65.6978 18.5228 65.7234 18.5228C65.749 18.5228 65.8066 18.5547 65.8513 18.5936C65.896 18.6326 65.9627 18.6644 65.9995 18.6644C66.0363 18.6644 66.0952 18.6963 66.1304 18.7352C66.1656 18.7742 66.2304 18.806 66.2746 18.806C66.3187 18.806 66.3795 18.8379 66.4096 18.8768C66.4397 18.9158 66.4973 18.9476 66.5375 18.9476C66.5778 18.9476 66.6353 18.9795 66.6654 19.0184C66.6956 19.0573 66.753 19.0892 66.793 19.0892C66.8331 19.0892 66.8947 19.1211 66.9298 19.16C66.965 19.1989 67.0206 19.2308 67.0534 19.2308C67.0862 19.2308 67.1496 19.2626 67.1944 19.3016C67.2391 19.3405 67.2966 19.3724 67.3223 19.3724C67.3479 19.3724 67.4055 19.4042 67.4502 19.4432C67.4949 19.4821 67.5525 19.514 67.5781 19.514C67.6037 19.514 67.659 19.5434 67.701 19.5794C67.7429 19.6153 67.8158 19.6552 67.8629 19.6679C67.9101 19.6807 67.9678 19.7122 67.9912 19.7381C68.0145 19.764 68.0721 19.7959 68.1191 19.8089C68.1661 19.822 68.2241 19.8544 68.2482 19.881C68.2722 19.9076 68.3272 19.9413 68.3703 19.9558C68.4135 19.9703 68.4936 20.0123 68.5485 20.049C68.6033 20.0857 68.6695 20.1157 68.6955 20.1157C68.7215 20.1157 68.776 20.1476 68.8165 20.1865C68.8571 20.2254 68.9149 20.2573 68.945 20.2573C68.9751 20.2573 69.0363 20.2892 69.0811 20.3281C69.1258 20.367 69.1833 20.3989 69.209 20.3989C69.2346 20.3989 69.2921 20.4308 69.3369 20.4697C69.3816 20.5086 69.4463 20.5405 69.4808 20.5405C69.5152 20.5405 69.5799 20.5723 69.6247 20.6113C69.6694 20.6502 69.7341 20.6821 69.7686 20.6821C69.803 20.6821 69.8677 20.7139 69.9125 20.7529C69.9572 20.7918 70.033 20.8237 70.0809 20.8237C70.1858 20.8237 70.366 20.7094 70.4905 20.5641C70.5772 20.4628 70.581 20.4445 70.5703 20.1826C70.5595 19.9206 70.5537 19.9023 70.4494 19.7992C70.3892 19.7397 70.3229 19.691 70.302 19.691C70.2812 19.691 70.2275 19.6591 70.1828 19.6202C70.1381 19.5812 70.0736 19.5494 70.0395 19.5494C70.0054 19.5494 69.9443 19.5175 69.9037 19.4786C69.8632 19.4396 69.8054 19.4078 69.7753 19.4078C69.7451 19.4078 69.6839 19.3759 69.6392 19.337C69.5945 19.298 69.5369 19.2662 69.5113 19.2662C69.4857 19.2662 69.4281 19.2343 69.3834 19.1954C69.3387 19.1565 69.2742 19.1246 69.24 19.1246C69.206 19.1246 69.1449 19.0927 69.1043 19.0538C69.0638 19.0149 69.0059 18.983 68.9758 18.983C68.9457 18.983 68.8845 18.9511 68.8398 18.9122C68.795 18.8733 68.7411 18.8414 68.7199 18.8414C68.6987 18.8414 68.629 18.8115 68.565 18.7749C68.5011 18.7384 68.4128 18.6907 68.3688 18.669C68.3249 18.6473 68.2673 18.6157 68.2409 18.5987C68.1567 18.5445 67.8437 18.3893 67.7692 18.3648C67.7297 18.3517 67.6973 18.3282 67.6973 18.3125C67.6973 18.2968 67.6558 18.2747 67.6052 18.2635C67.5546 18.2523 67.4927 18.2206 67.4678 18.193C67.4429 18.1654 67.3879 18.1306 67.3456 18.1158C67.3033 18.1009 67.1629 18.0271 67.0338 17.9518C66.9046 17.8765 66.7802 17.8149 66.7573 17.8149C66.7345 17.8149 66.6826 17.783 66.642 17.7441C66.6015 17.7052 66.5439 17.6733 66.5141 17.6733C66.4843 17.6733 66.4268 17.6415 66.3862 17.6025C66.3457 17.5636 66.2881 17.5317 66.2583 17.5317C66.2285 17.5317 66.1709 17.4999 66.1304 17.4609C66.0898 17.422 66.032 17.3901 66.0019 17.3901C65.9718 17.3901 65.9106 17.3583 65.8658 17.3193C65.8211 17.2804 65.7636 17.2485 65.7379 17.2485C65.7123 17.2485 65.6548 17.2167 65.61 17.1778C65.5653 17.1388 65.5008 17.107 65.4667 17.107C65.4326 17.107 65.3715 17.0751 65.331 17.0362C65.2904 16.9972 65.2326 16.9654 65.2025 16.9654C65.1723 16.9654 65.1111 16.9335 65.0664 16.8946C65.0217 16.8556 64.9686 16.8238 64.9485 16.8238C64.9284 16.8238 64.8587 16.7932 64.7937 16.7559C64.7286 16.7186 64.6394 16.6709 64.5955 16.65C64.5515 16.6291 64.4939 16.5976 64.4676 16.58C64.4412 16.5625 64.3836 16.5307 64.3396 16.5092C64.2957 16.4878 64.2381 16.4564 64.2117 16.4395C64.1275 16.3853 63.8146 16.2301 63.7401 16.2055C63.7005 16.1925 63.6681 16.1695 63.6681 16.1545C63.6681 16.1394 63.6106 16.1079 63.5402 16.0846C63.4699 16.0613 63.4123 16.0269 63.4123 16.0082C63.4123 15.9895 63.3937 15.9742 63.3709 15.9742C63.3481 15.9742 63.1442 15.8707 62.9179 15.7442C62.6915 15.6176 62.4893 15.5141 62.4685 15.5141C62.4478 15.5141 62.3976 15.4822 62.357 15.4433C62.3165 15.4044 62.2589 15.3725 62.2291 15.3725C62.1993 15.3725 62.1418 15.3406 62.1012 15.3017C62.0607 15.2628 62.0029 15.2309 61.9727 15.2309C61.9426 15.2309 61.8814 15.199 61.8367 15.1601C61.792 15.1212 61.7251 15.0893 61.6881 15.0893C61.6512 15.0893 61.5963 15.0575 61.5662 15.0185C61.536 14.9796 61.4806 14.9477 61.4429 14.9477C61.4052 14.9477 61.3378 14.9159 61.293 14.8769C61.2483 14.838 61.1953 14.8061 61.1751 14.8061C61.155 14.8061 61.0854 14.7756 61.0203 14.7383C60.9553 14.7009 60.8661 14.6533 60.8221 14.6323C60.7781 14.6114 60.7206 14.5802 60.6942 14.563C60.6678 14.5457 60.5383 14.4739 60.4064 14.4033C59.6035 13.9737 59.5346 13.9028 59.7574 13.736C59.8241 13.686 59.9133 13.6337 59.9556 13.6198C59.9978 13.6059 60.1058 13.5465 60.1954 13.4878C60.2851 13.4292 60.4129 13.3599 60.4795 13.3338C60.5461 13.3077 60.632 13.2619 60.6705 13.2321C60.7089 13.2023 60.7601 13.1779 60.7842 13.1779C60.8083 13.1779 60.8646 13.146 60.9093 13.1071C60.9541 13.0681 61.0215 13.0363 61.0592 13.0363C61.0968 13.0363 61.1523 13.0044 61.1824 12.9655C61.2126 12.9265 61.2674 12.8947 61.3044 12.8947C61.3414 12.8947 61.4082 12.8628 61.4529 12.8239C61.4977 12.785 61.5552 12.7531 61.5808 12.7531C61.6065 12.7531 61.6641 12.7212 61.7088 12.6823C61.7535 12.6434 61.8209 12.6115 61.8586 12.6115C61.8963 12.6115 61.9518 12.5797 61.9819 12.5407C62.012 12.5018 62.0696 12.4699 62.1098 12.4699C62.15 12.4699 62.2076 12.4381 62.2377 12.3991C62.2678 12.3602 62.3254 12.3283 62.3656 12.3283C62.4058 12.3283 62.4634 12.2965 62.4935 12.2575C62.5236 12.2186 62.5785 12.1867 62.6155 12.1867C62.6525 12.1867 62.7193 12.1549 62.764 12.116C62.8088 12.077 62.87 12.0452 62.9001 12.0452C62.9302 12.0452 62.988 12.0133 63.0286 11.9744C63.0691 11.9354 63.1267 11.9036 63.1565 11.9036C63.1863 11.9036 63.2438 11.8717 63.2844 11.8328C63.3249 11.7938 63.3825 11.762 63.4123 11.762C63.4421 11.762 63.4997 11.7301 63.5402 11.6912C63.5808 11.6522 63.6314 11.6204 63.6528 11.6204C63.6742 11.6204 63.8185 11.5487 63.9737 11.4611C64.322 11.2644 64.4525 11.2554 64.7444 11.408ZM83.2384 20.7656V23.5369L83.1664 23.608C83.091 23.6825 81.9479 24.328 81.8914 24.328C81.8735 24.328 81.8372 24.3518 81.8109 24.381C81.7845 24.4102 81.7244 24.4445 81.6772 24.4572C81.6301 24.47 81.5572 24.5098 81.5153 24.5457C81.4733 24.5817 81.418 24.6112 81.3924 24.6112C81.3668 24.6112 81.3092 24.643 81.2645 24.682C81.2198 24.7209 81.1564 24.7527 81.1236 24.7527C81.0907 24.7527 81.0351 24.7846 81 24.8235C80.9648 24.8625 80.9067 24.8943 80.8709 24.8943C80.8351 24.8943 80.7738 24.9176 80.7347 24.9459C80.5632 25.0704 80.5691 25.1618 80.559 22.2143C80.5538 20.7194 80.558 19.4485 80.5681 19.3901C80.5812 19.3145 80.6266 19.2558 80.7255 19.1865C80.8019 19.133 80.8818 19.0892 80.9031 19.0892C80.9245 19.0892 80.9785 19.0573 81.0232 19.0184C81.0679 18.9795 81.1314 18.9476 81.1642 18.9476C81.197 18.9476 81.2526 18.9158 81.2878 18.8768C81.3229 18.8379 81.3818 18.806 81.4186 18.806C81.4554 18.806 81.5221 18.7742 81.5668 18.7352C81.6116 18.6963 81.6691 18.6644 81.6947 18.6644C81.7204 18.6644 81.7779 18.6326 81.8226 18.5936C81.8674 18.5547 81.9249 18.5228 81.9506 18.5228C81.9762 18.5228 82.0338 18.491 82.0785 18.452C82.1232 18.4131 82.183 18.3811 82.2114 18.381C82.2398 18.3809 82.3062 18.3491 82.359 18.3105C82.4118 18.2718 82.4779 18.24 82.506 18.2399C82.5341 18.2398 82.5885 18.2095 82.6269 18.1726C82.6654 18.1357 82.7467 18.0952 82.8077 18.0825C82.8687 18.0698 82.9186 18.0447 82.9186 18.0267C82.9186 17.9757 83.119 17.9273 83.1824 17.9629C83.235 17.9925 83.2384 18.1619 83.2384 20.7656ZM60.18 27.7198C60.1346 27.7525 60.0591 27.8253 60.0121 27.8817C59.936 27.9732 59.9267 28.0119 59.9267 28.2411C59.9267 28.4796 59.934 28.5072 60.0286 28.6253C60.0846 28.6954 60.1567 28.7526 60.1888 28.7526C60.2209 28.7526 60.2718 28.7845 60.3019 28.8234C60.332 28.8624 60.3894 28.8942 60.4295 28.8942C60.4696 28.8942 60.5311 28.9261 60.5663 28.965C60.6015 29.004 60.6571 29.0358 60.6899 29.0358C60.7227 29.0358 60.7861 29.0677 60.8308 29.1066C60.8755 29.1455 60.9424 29.1774 60.9794 29.1774C61.0163 29.1774 61.0712 29.2093 61.1013 29.2482C61.1315 29.2871 61.1869 29.319 61.2246 29.319C61.2623 29.319 61.3297 29.3508 61.3745 29.3898C61.4192 29.4287 61.4767 29.4606 61.5024 29.4606C61.528 29.4606 61.5855 29.4924 61.6303 29.5314C61.675 29.5703 61.7243 29.6022 61.7398 29.6022C61.7684 29.6022 62.53 30.0038 62.7471 30.1333C62.8121 30.1722 62.8855 30.2039 62.9101 30.2039C62.9347 30.2039 62.988 30.2358 63.0286 30.2747C63.0691 30.3136 63.1289 30.3455 63.1614 30.3455C63.1939 30.3455 63.2492 30.3774 63.2844 30.4163C63.3196 30.4552 63.3771 30.4871 63.4123 30.4871C63.4475 30.4871 63.505 30.519 63.5402 30.5579C63.5754 30.5968 63.6403 30.6287 63.6844 30.6287C63.7286 30.6287 63.7893 30.6605 63.8194 30.6995C63.8496 30.7384 63.9071 30.7703 63.9473 30.7703C63.9876 30.7703 64.0451 30.8021 64.0753 30.8411C64.1054 30.88 64.1629 30.9119 64.2032 30.9119C64.2434 30.9119 64.301 30.9437 64.3311 30.9827C64.3612 31.0216 64.4167 31.0534 64.4543 31.0534C64.4921 31.0534 64.5595 31.0853 64.6042 31.1242C64.7515 31.2525 64.9127 31.2075 65.1631 30.9683C65.2026 30.9304 65.235 30.8721 65.235 30.8387C65.235 30.8052 65.2566 30.7687 65.283 30.7575C65.3143 30.7442 65.331 30.6891 65.331 30.5987C65.331 30.5189 65.3106 30.4417 65.283 30.4163C65.2566 30.3921 65.235 30.3453 65.235 30.3124C65.235 30.2234 64.8294 29.9207 64.71 29.9207C64.6869 29.9207 64.6315 29.8889 64.5867 29.8499C64.542 29.811 64.4845 29.7792 64.4588 29.7792C64.4332 29.7792 64.3757 29.7473 64.3309 29.7084C64.2862 29.6694 64.2194 29.6376 64.1824 29.6376C64.1454 29.6376 64.0905 29.6057 64.0604 29.5668C64.0303 29.5278 63.9727 29.496 63.9325 29.496C63.8923 29.496 63.8347 29.4641 63.8046 29.4252C63.7745 29.3862 63.719 29.3544 63.6813 29.3544C63.6436 29.3544 63.5762 29.3225 63.5315 29.2836C63.4868 29.2447 63.4292 29.2128 63.4036 29.2128C63.378 29.2128 63.3204 29.1809 63.2757 29.142C63.231 29.1031 63.1641 29.0712 63.1271 29.0712C63.0902 29.0712 63.0353 29.0393 63.0052 29.0004C62.975 28.9615 62.9176 28.9296 62.8776 28.9296C62.8375 28.9296 62.7759 28.8978 62.7408 28.8588C62.7056 28.8199 62.65 28.788 62.6172 28.788C62.5844 28.788 62.521 28.7562 62.4762 28.7172C62.4315 28.6783 62.3803 28.6464 62.3624 28.6464C62.3301 28.6464 61.8429 28.3923 61.6152 28.2567C61.5502 28.218 61.4768 28.1863 61.4522 28.1863C61.4276 28.1863 61.3743 28.1544 61.3338 28.1155C61.2932 28.0765 61.2356 28.0447 61.2058 28.0447C61.176 28.0447 61.1185 28.0128 61.0779 27.9739C61.0374 27.935 60.9796 27.9031 60.9494 27.9031C60.9193 27.9031 60.8581 27.8712 60.8134 27.8323C60.7687 27.7934 60.703 27.7615 60.6675 27.7615C60.6319 27.7615 60.5813 27.7376 60.5549 27.7084C60.4917 27.6384 60.2843 27.6448 60.18 27.7198ZM60.164 30.3774C60.1274 30.3951 60.059 30.4601 60.0121 30.5219C59.9364 30.6214 59.9267 30.6638 59.9267 30.8966C59.9267 31.1207 59.9361 31.1655 59.9907 31.2033C60.0259 31.2276 60.0553 31.2635 60.056 31.2832C60.0577 31.3265 60.2664 31.4782 60.3244 31.4782C60.3472 31.4782 60.4001 31.5076 60.4421 31.5436C60.484 31.5796 60.5569 31.6194 60.604 31.6322C60.6512 31.6449 60.7113 31.6792 60.7377 31.7084C60.764 31.7375 60.8026 31.7614 60.8235 31.7614C60.8443 31.7614 60.9137 31.7917 60.9777 31.8288C61.2189 31.9685 61.9601 32.3573 62.0264 32.3789C62.0644 32.3912 62.1129 32.4246 62.1342 32.453C62.1555 32.4814 62.2074 32.5047 62.2493 32.5047C62.2913 32.5047 62.3503 32.5366 62.3804 32.5755C62.4255 32.6338 62.4748 32.6463 62.6582 32.6463C62.8474 32.6463 62.8998 32.6321 63.0035 32.5526C63.1481 32.4416 63.1751 32.3413 63.1613 31.9672C63.1565 31.8386 63.143 31.8185 62.8989 31.5756C62.8647 31.5415 62.8079 31.5136 62.7727 31.5136C62.7376 31.5136 62.68 31.4818 62.6448 31.4428C62.6097 31.4039 62.5521 31.372 62.5169 31.372C62.4818 31.372 62.4242 31.3402 62.389 31.3012C62.3538 31.2623 62.289 31.2304 62.2448 31.2304C62.2007 31.2304 62.1399 31.1986 62.1098 31.1596C62.0797 31.1207 62.0221 31.0888 61.9819 31.0888C61.9416 31.0888 61.8841 31.057 61.854 31.0181C61.8238 30.9791 61.7664 30.9473 61.7264 30.9473C61.6863 30.9473 61.6248 30.9154 61.5896 30.8765C61.5544 30.8375 61.4988 30.8057 61.466 30.8057C61.4332 30.8057 61.372 30.7763 61.3301 30.7403C61.2881 30.7043 61.2152 30.6645 61.1681 30.6517C61.121 30.639 61.0609 30.6047 61.0345 30.5755C61.0081 30.5464 60.9675 30.5224 60.9443 30.5223C60.9211 30.5223 60.8528 30.489 60.7926 30.4484C60.6708 30.3662 60.2788 30.3219 60.164 30.3774Z" fill="#FF782D"/>
</svg>
