<svg width="23" height="23" viewBox="0 0 23 23" fill="none" xmlns="http://www.w3.org/2000/svg">
<path d="M21.3571 13.1429H13.1429V21.3571C13.1429 21.7929 12.9698 22.2107 12.6617 22.5188C12.3536 22.8269 11.9357 23 11.5 23C11.0643 23 10.6464 22.8269 10.3383 22.5188C10.0302 22.2107 9.85714 21.7929 9.85714 21.3571V13.1429H1.64286C1.20714 13.1429 0.789278 12.9698 0.481182 12.6617C0.173087 12.3536 0 11.9357 0 11.5C0 11.0643 0.173087 10.6464 0.481182 10.3383C0.789278 10.0302 1.20714 9.85714 1.64286 9.85714H9.85714V1.64286C9.85714 1.20714 10.0302 0.789277 10.3383 0.481181C10.6464 0.173086 11.0643 0 11.5 0C11.9357 0 12.3536 0.173086 12.6617 0.481181C12.9698 0.789277 13.1429 1.20714 13.1429 1.64286V9.85714H21.3571C21.7929 9.85714 22.2107 10.0302 22.5188 10.3383C22.8269 10.6464 23 11.0643 23 11.5C23 11.9357 22.8269 12.3536 22.5188 12.6617C22.2107 12.9698 21.7929 13.1429 21.3571 13.1429Z" fill="#9F3247"/>
</svg>
